<svg xmlns="http://www.w3.org/2000/svg" xmlns:xlink="http://www.w3.org/1999/xlink" width="1700pt" height="1258pt" viewBox="0 0 1699.93 1257.6"><g id="graph0" class="graph" transform="scale(1 1) rotate(0) translate(4 1253.6)"><title>UmlClassDiagram</title><polygon fill="#fff" stroke="transparent" points="-4 4 -4 -1253.6 1695.934 -1253.6 1695.934 4 -4 4"/><g id="node1" class="node"><title>0</title><polygon fill="#f2f2f2" stroke="#000" points="989.624 -1065.5 989.624 -1190.3 1207.769 -1190.3 1207.769 -1065.5 989.624 -1065.5"/><text x="1098.696" y="-1173.7" fill="#000" font-family="Times,serif" font-size="14" text-anchor="middle">&lt;&lt;Abstract&gt;&gt;</text><text x="1098.696" y="-1156.9" fill="#000" font-family="Times,serif" font-size="14" text-anchor="middle">Context</text><polyline fill="none" stroke="#000" points="989.624 -1148.7 1207.769 -1148.7"/><polyline fill="none" stroke="#000" points="989.624 -1123.9 1207.769 -1123.9"/><text x="997.624" y="-1107.3" fill="#000" font-family="Times,serif" font-size="14" text-anchor="start">Internal:</text><text x="997.624" y="-1090.5" fill="#000" font-family="Times,serif" font-size="14" text-anchor="start">_msgSender(): (payable: address)</text><text x="997.624" y="-1073.7" fill="#000" font-family="Times,serif" font-size="14" text-anchor="start">_msgData(): bytes</text></g><g id="node2" class="node"><title>1</title><polygon fill="#f2f2f2" stroke="#000" points="1126.259 -618.1 1126.259 -826.9 1611.133 -826.9 1611.133 -618.1 1126.259 -618.1"/><text x="1368.696" y="-810.3" fill="#000" font-family="Times,serif" font-size="14" text-anchor="middle">&lt;&lt;Abstract&gt;&gt;</text><text x="1368.696" y="-793.5" fill="#000" font-family="Times,serif" font-size="14" text-anchor="middle">Ownable</text><polyline fill="none" stroke="#000" points="1126.259 -785.3 1611.133 -785.3"/><text x="1134.259" y="-768.7" fill="#000" font-family="Times,serif" font-size="14" text-anchor="start">Private:</text><text x="1134.259" y="-751.9" fill="#000" font-family="Times,serif" font-size="14" text-anchor="start">_owner: address</text><polyline fill="none" stroke="#000" points="1126.259 -743.7 1611.133 -743.7"/><text x="1134.259" y="-727.1" fill="#000" font-family="Times,serif" font-size="14" text-anchor="start">Public:</text><text x="1134.259" y="-710.3" fill="#000" font-family="Times,serif" font-size="14" text-anchor="start">&lt;&lt;event&gt;&gt; OwnershipTransferred(previousOwner: address, newOwner: address)</text><text x="1134.259" y="-693.5" fill="#000" font-family="Times,serif" font-size="14" text-anchor="start">&lt;&lt;modifier&gt;&gt; onlyOwner()</text><text x="1134.259" y="-676.7" fill="#000" font-family="Times,serif" font-size="14" text-anchor="start">constructor()</text><text x="1134.259" y="-659.9" fill="#000" font-family="Times,serif" font-size="14" text-anchor="start">owner(): address</text><text x="1134.259" y="-643.1" fill="#000" font-family="Times,serif" font-size="14" text-anchor="start">renounceOwnership()</text><text x="1134.259" y="-626.3" fill="#000" font-family="Times,serif" font-size="14" text-anchor="start">transferOwnership(newOwner: address)</text></g><g id="edge1" class="edge"><title>1-&gt;0</title><path fill="none" stroke="#000" d="M1299.1647,-826.9006C1255.2101,-892.8976 1199.0383,-977.2385 1157.3436,-1039.8423"/><polygon fill="none" stroke="#000" points="1148.329 -1034.435 1140.439 -1065.225 1165.807 -1046.076 1148.329 -1034.435"/></g><g id="node3" class="node"><title>2</title><polygon fill="#f2f2f2" stroke="#000" points="1225.397 -1006.7 1225.397 -1249.1 1663.996 -1249.1 1663.996 -1006.7 1225.397 -1006.7"/><text x="1444.696" y="-1232.5" fill="#000" font-family="Times,serif" font-size="14" text-anchor="middle">&lt;&lt;Interface&gt;&gt;</text><text x="1444.696" y="-1215.7" fill="#000" font-family="Times,serif" font-size="14" text-anchor="middle">IERC20</text><polyline fill="none" stroke="#000" points="1225.397 -1207.5 1663.996 -1207.5"/><polyline fill="none" stroke="#000" points="1225.397 -1182.7 1663.996 -1182.7"/><text x="1233.397" y="-1166.1" fill="#000" font-family="Times,serif" font-size="14" text-anchor="start">External:</text><text x="1233.397" y="-1149.3" fill="#000" font-family="Times,serif" font-size="14" text-anchor="start">totalSupply(): uint256</text><text x="1233.397" y="-1132.5" fill="#000" font-family="Times,serif" font-size="14" text-anchor="start">balanceOf(account: address): uint256</text><text x="1233.397" y="-1115.7" fill="#000" font-family="Times,serif" font-size="14" text-anchor="start">transfer(recipient: address, amount: uint256): bool</text><text x="1233.397" y="-1098.9" fill="#000" font-family="Times,serif" font-size="14" text-anchor="start">allowance(owner: address, spender: address): uint256</text><text x="1233.397" y="-1082.1" fill="#000" font-family="Times,serif" font-size="14" text-anchor="start">approve(spender: address, amount: uint256): bool</text><text x="1233.397" y="-1065.3" fill="#000" font-family="Times,serif" font-size="14" text-anchor="start">transferFrom(sender: address, recipient: address, amount: uint256): bool</text><text x="1233.397" y="-1048.5" fill="#000" font-family="Times,serif" font-size="14" text-anchor="start">Public:</text><text x="1233.397" y="-1031.7" fill="#000" font-family="Times,serif" font-size="14" text-anchor="start">&lt;&lt;event&gt;&gt; Transfer(from: address, to: address, value: uint256)</text><text x="1233.397" y="-1014.9" fill="#000" font-family="Times,serif" font-size="14" text-anchor="start">&lt;&lt;event&gt;&gt; Approval(owner: address, spender: address, value: uint256)</text></g><g id="node4" class="node"><title>3</title><polygon fill="#f2f2f2" stroke="#000" points="0 -1015.1 0 -1240.7 357.393 -1240.7 357.393 -1015.1 0 -1015.1"/><text x="178.696" y="-1224.1" fill="#000" font-family="Times,serif" font-size="14" text-anchor="middle">&lt;&lt;Library&gt;&gt;</text><text x="178.696" y="-1207.3" fill="#000" font-family="Times,serif" font-size="14" text-anchor="middle">SafeMath</text><polyline fill="none" stroke="#000" points="0 -1199.1 357.393 -1199.1"/><polyline fill="none" stroke="#000" points="0 -1174.3 357.393 -1174.3"/><text x="8" y="-1157.7" fill="#000" font-family="Times,serif" font-size="14" text-anchor="start">Internal:</text><text x="8" y="-1140.9" fill="#000" font-family="Times,serif" font-size="14" text-anchor="start">add(a: uint256, b: uint256): uint256</text><text x="8" y="-1124.1" fill="#000" font-family="Times,serif" font-size="14" text-anchor="start">sub(a: uint256, b: uint256): uint256</text><text x="8" y="-1107.3" fill="#000" font-family="Times,serif" font-size="14" text-anchor="start">sub(a: uint256, b: uint256, errorMessage: string): uint256</text><text x="8" y="-1090.5" fill="#000" font-family="Times,serif" font-size="14" text-anchor="start">mul(a: uint256, b: uint256): uint256</text><text x="8" y="-1073.7" fill="#000" font-family="Times,serif" font-size="14" text-anchor="start">div(a: uint256, b: uint256): uint256</text><text x="8" y="-1056.9" fill="#000" font-family="Times,serif" font-size="14" text-anchor="start">div(a: uint256, b: uint256, errorMessage: string): uint256</text><text x="8" y="-1040.1" fill="#000" font-family="Times,serif" font-size="14" text-anchor="start">mod(a: uint256, b: uint256): uint256</text><text x="8" y="-1023.3" fill="#000" font-family="Times,serif" font-size="14" text-anchor="start">mod(a: uint256, b: uint256, errorMessage: string): uint256</text></g><g id="node5" class="node"><title>4</title><polygon fill="#f2f2f2" stroke="#000" points="375.479 -1015.1 375.479 -1240.7 971.914 -1240.7 971.914 -1015.1 375.479 -1015.1"/><text x="673.696" y="-1224.1" fill="#000" font-family="Times,serif" font-size="14" text-anchor="middle">&lt;&lt;Library&gt;&gt;</text><text x="673.696" y="-1207.3" fill="#000" font-family="Times,serif" font-size="14" text-anchor="middle">Address</text><polyline fill="none" stroke="#000" points="375.479 -1199.1 971.914 -1199.1"/><polyline fill="none" stroke="#000" points="375.479 -1174.3 971.914 -1174.3"/><text x="383.479" y="-1157.7" fill="#000" font-family="Times,serif" font-size="14" text-anchor="start">Private:</text><text x="383.479" y="-1140.9" fill="#000" font-family="Times,serif" font-size="14" text-anchor="start">_functionCallWithValue(target: address, data: bytes, weiValue: uint256, errorMessage: string): bytes</text><text x="383.479" y="-1124.1" fill="#000" font-family="Times,serif" font-size="14" text-anchor="start">Internal:</text><text x="383.479" y="-1107.3" fill="#000" font-family="Times,serif" font-size="14" text-anchor="start">isContract(account: address): bool</text><text x="383.479" y="-1090.5" fill="#000" font-family="Times,serif" font-size="14" text-anchor="start">sendValue(recipient: address, amount: uint256)</text><text x="383.479" y="-1073.7" fill="#000" font-family="Times,serif" font-size="14" text-anchor="start">functionCall(target: address, data: bytes): bytes</text><text x="383.479" y="-1056.9" fill="#000" font-family="Times,serif" font-size="14" text-anchor="start">functionCall(target: address, data: bytes, errorMessage: string): bytes</text><text x="383.479" y="-1040.1" fill="#000" font-family="Times,serif" font-size="14" text-anchor="start">functionCallWithValue(target: address, data: bytes, value: uint256): bytes</text><text x="383.479" y="-1023.3" fill="#000" font-family="Times,serif" font-size="14" text-anchor="start">functionCallWithValue(target: address, data: bytes, value: uint256, errorMessage: string): bytes</text></g><g id="node6" class="node"><title>5</title><polygon fill="#f2f2f2" stroke="#000" points="635.146 -475.3 635.146 -969.7 1070.246 -969.7 1070.246 -475.3 635.146 -475.3"/><text x="852.696" y="-953.1" fill="#000" font-family="Times,serif" font-size="14" text-anchor="middle">ERC20</text><polyline fill="none" stroke="#000" points="635.146 -944.9 1070.246 -944.9"/><text x="643.146" y="-928.3" fill="#000" font-family="Times,serif" font-size="14" text-anchor="start">Private:</text><text x="643.146" y="-911.5" fill="#000" font-family="Times,serif" font-size="14" text-anchor="start">_balances: mapping(address=&gt;uint256)</text><text x="643.146" y="-894.7" fill="#000" font-family="Times,serif" font-size="14" text-anchor="start">_allowances: mapping(address=&gt;mapping(address=&gt;uint256))</text><text x="643.146" y="-877.9" fill="#000" font-family="Times,serif" font-size="14" text-anchor="start">_totalSupply: uint256</text><text x="643.146" y="-861.1" fill="#000" font-family="Times,serif" font-size="14" text-anchor="start">_name: string</text><text x="643.146" y="-844.3" fill="#000" font-family="Times,serif" font-size="14" text-anchor="start">_symbol: string</text><text x="643.146" y="-827.5" fill="#000" font-family="Times,serif" font-size="14" text-anchor="start">_decimals: uint8</text><polyline fill="none" stroke="#000" points="635.146 -819.3 1070.246 -819.3"/><text x="643.146" y="-802.7" fill="#000" font-family="Times,serif" font-size="14" text-anchor="start">Internal:</text><text x="643.146" y="-785.9" fill="#000" font-family="Times,serif" font-size="14" text-anchor="start">_transfer(sender: address, recipient: address, amount: uint256)</text><text x="643.146" y="-769.1" fill="#000" font-family="Times,serif" font-size="14" text-anchor="start">_mint(account: address, amount: uint256)</text><text x="643.146" y="-752.3" fill="#000" font-family="Times,serif" font-size="14" text-anchor="start">_burn(account: address, amount: uint256)</text><text x="643.146" y="-735.5" fill="#000" font-family="Times,serif" font-size="14" text-anchor="start">_approve(owner: address, spender: address, amount: uint256)</text><text x="643.146" y="-718.7" fill="#000" font-family="Times,serif" font-size="14" text-anchor="start">_setupDecimals(decimals_: uint8)</text><text x="643.146" y="-701.9" fill="#000" font-family="Times,serif" font-size="14" text-anchor="start">_beforeTokenTransfer(from: address, to: address, amount: uint256)</text><text x="643.146" y="-685.1" fill="#000" font-family="Times,serif" font-size="14" text-anchor="start">Public:</text><text x="643.146" y="-668.3" fill="#000" font-family="Times,serif" font-size="14" text-anchor="start">constructor(name_: string, symbol_: string)</text><text x="643.146" y="-651.5" fill="#000" font-family="Times,serif" font-size="14" text-anchor="start">name(): string</text><text x="643.146" y="-634.7" fill="#000" font-family="Times,serif" font-size="14" text-anchor="start">symbol(): string</text><text x="643.146" y="-617.9" fill="#000" font-family="Times,serif" font-size="14" text-anchor="start">decimals(): uint8</text><text x="643.146" y="-601.1" fill="#000" font-family="Times,serif" font-size="14" text-anchor="start">totalSupply(): uint256</text><text x="643.146" y="-584.3" fill="#000" font-family="Times,serif" font-size="14" text-anchor="start">balanceOf(account: address): uint256</text><text x="643.146" y="-567.5" fill="#000" font-family="Times,serif" font-size="14" text-anchor="start">transfer(recipient: address, amount: uint256): bool</text><text x="643.146" y="-550.7" fill="#000" font-family="Times,serif" font-size="14" text-anchor="start">allowance(owner: address, spender: address): uint256</text><text x="643.146" y="-533.9" fill="#000" font-family="Times,serif" font-size="14" text-anchor="start">approve(spender: address, amount: uint256): bool</text><text x="643.146" y="-517.1" fill="#000" font-family="Times,serif" font-size="14" text-anchor="start">transferFrom(sender: address, recipient: address, amount: uint256): bool</text><text x="643.146" y="-500.3" fill="#000" font-family="Times,serif" font-size="14" text-anchor="start">increaseAllowance(spender: address, addedValue: uint256): bool</text><text x="643.146" y="-483.5" fill="#000" font-family="Times,serif" font-size="14" text-anchor="start">decreaseAllowance(spender: address, subtractedValue: uint256): bool</text></g><g id="edge2" class="edge"><title>5-&gt;0</title><path fill="none" stroke="#000" d="M1002.7057,-969.7105C1017.6956,-994.4134 1032.1225,-1018.1884 1045.0352,-1039.4681"/><polygon fill="none" stroke="#000" points="1036.243 -1045.219 1060.783 -1065.42 1054.196 -1034.325 1036.243 -1045.219"/></g><g id="edge3" class="edge"><title>5-&gt;2</title><path fill="none" stroke="#000" stroke-dasharray="5 2" d="M1070.3698,-937.987C1085.8891,-949.5393 1101.7263,-960.4038 1117.6964,-970.2 1149.1869,-989.5165 1165.9985,-988.8895 1196.9427,-999.0504"/><polygon fill="none" stroke="#000" points="1193.574 -1009.006 1225.34 -1010.099 1201.189 -989.436 1193.574 -1009.006"/></g><g id="edge4" class="edge"><title>5-&gt;3</title><path fill="none" stroke="#000" stroke-dasharray="5 2" d="M635.1003,-905.8101C599.3917,-930.0474 561.6201,-952.5601 523.6964,-970.2 458.7861,-1000.3925 432.6352,-978.3252 366.6964,-1006.2 363.2719,-1007.6477 359.8408,-1009.157 356.4086,-1010.7214"/><polygon fill="#000" stroke="#000" points="354.889 -1007.568 347.324 -1014.986 357.864 -1013.905 354.889 -1007.568"/></g><g id="edge5" class="edge"><title>5-&gt;4</title><path fill="none" stroke="#000" stroke-dasharray="5 2" d="M743.5433,-969.7105C738.1366,-981.9555 732.8306,-993.9726 727.7096,-1005.5708"/><polygon fill="#000" stroke="#000" points="724.481 -1004.217 723.644 -1014.779 730.885 -1007.045 724.481 -1004.217"/></g><g id="node7" class="node"><title>6</title><polygon fill="#f2f2f2" stroke="#000" points="955.003 -288.3 955.003 -413.1 1242.39 -413.1 1242.39 -288.3 955.003 -288.3"/><text x="1098.696" y="-396.5" fill="#000" font-family="Times,serif" font-size="14" text-anchor="middle">&lt;&lt;Abstract&gt;&gt;</text><text x="1098.696" y="-379.7" fill="#000" font-family="Times,serif" font-size="14" text-anchor="middle">ERC20Burnable</text><polyline fill="none" stroke="#000" points="955.003 -371.5 1242.39 -371.5"/><polyline fill="none" stroke="#000" points="955.003 -346.7 1242.39 -346.7"/><text x="963.003" y="-330.1" fill="#000" font-family="Times,serif" font-size="14" text-anchor="start">Public:</text><text x="963.003" y="-313.3" fill="#000" font-family="Times,serif" font-size="14" text-anchor="start">burn(amount: uint256)</text><text x="963.003" y="-296.5" fill="#000" font-family="Times,serif" font-size="14" text-anchor="start">burnFrom(account: address, amount: uint256)</text></g><g id="edge6" class="edge"><title>6-&gt;0</title><path fill="none" stroke="#000" d="M1098.6964,-413.3151C1098.6964,-549.8232 1098.6964,-874.803 1098.6964,-1035.1575"/><polygon fill="none" stroke="#000" points="1088.197 -1035.385 1098.696 -1065.385 1109.197 -1035.385 1088.197 -1035.385"/></g><g id="edge8" class="edge"><title>6-&gt;3</title><path fill="none" stroke="#000" stroke-dasharray="5 2" d="M1003.9713,-413.1574C985.2818,-423.1705 965.3537,-432.346 945.6964,-438.8 809.7186,-483.4452 743.255,-393.1719 625.6964,-474.8 422.9533,-615.5769 530.112,-778.4478 374.6964,-970.2 364.2367,-983.1052 352.5585,-995.6567 340.2548,-1007.6749"/><polygon fill="#000" stroke="#000" points="337.737 -1005.24 332.943 -1014.688 342.583 -1010.292 337.737 -1005.24"/></g><g id="edge7" class="edge"><title>6-&gt;5</title><path fill="none" stroke="#000" d="M1057.244,-413.3504C1049.807,-424.5905 1041.6461,-436.9248 1032.9986,-449.9945"/><polygon fill="none" stroke="#000" points="1024.2 -444.264 1016.403 -475.077 1041.713 -455.852 1024.2 -444.264"/></g><g id="node8" class="node"><title>7</title><polygon fill="#f2f2f2" stroke="#000" points="528.568 -263.1 528.568 -438.3 936.824 -438.3 936.824 -263.1 528.568 -263.1"/><text x="732.696" y="-421.7" fill="#000" font-family="Times,serif" font-size="14" text-anchor="middle">&lt;&lt;Abstract&gt;&gt;</text><text x="732.696" y="-404.9" fill="#000" font-family="Times,serif" font-size="14" text-anchor="middle">ERC20Capped</text><polyline fill="none" stroke="#000" points="528.568 -396.7 936.824 -396.7"/><text x="536.568" y="-380.1" fill="#000" font-family="Times,serif" font-size="14" text-anchor="start">Private:</text><text x="536.568" y="-363.3" fill="#000" font-family="Times,serif" font-size="14" text-anchor="start">_cap: uint256</text><polyline fill="none" stroke="#000" points="528.568 -355.1 936.824 -355.1"/><text x="536.568" y="-338.5" fill="#000" font-family="Times,serif" font-size="14" text-anchor="start">Internal:</text><text x="536.568" y="-321.7" fill="#000" font-family="Times,serif" font-size="14" text-anchor="start">_beforeTokenTransfer(from: address, to: address, amount: uint256)</text><text x="536.568" y="-304.9" fill="#000" font-family="Times,serif" font-size="14" text-anchor="start">Public:</text><text x="536.568" y="-288.1" fill="#000" font-family="Times,serif" font-size="14" text-anchor="start">constructor(cap_: uint256)</text><text x="536.568" y="-271.3" fill="#000" font-family="Times,serif" font-size="14" text-anchor="start">cap(): uint256</text></g><g id="edge10" class="edge"><title>7-&gt;3</title><path fill="none" stroke="#000" stroke-dasharray="5 2" d="M538.5807,-438.3844C523.1268,-449.4191 508.5505,-461.5479 495.6964,-474.8 347.617,-627.4646 257.0184,-862.641 212.4627,-1005.2168"/><polygon fill="#000" stroke="#000" points="209.08 -1004.308 209.464 -1014.896 215.767 -1006.38 209.08 -1004.308"/></g><g id="edge9" class="edge"><title>7-&gt;5</title><path fill="none" stroke="#000" d="M760.9828,-438.3406C761.8305,-440.9672 762.6901,-443.6305 763.5605,-446.3272"/><polygon fill="none" stroke="#000" points="753.603 -449.662 772.81 -474.987 773.588 -443.212 753.603 -449.662"/></g><g id="node9" class="node"><title>8</title><polygon fill="#f2f2f2" stroke="#000" points="1299.185 -305.1 1299.185 -396.3 1682.208 -396.3 1682.208 -305.1 1299.185 -305.1"/><text x="1490.696" y="-379.7" fill="#000" font-family="Times,serif" font-size="14" text-anchor="middle">TokenRecover</text><polyline fill="none" stroke="#000" points="1299.185 -371.5 1682.208 -371.5"/><polyline fill="none" stroke="#000" points="1299.185 -346.7 1682.208 -346.7"/><text x="1307.185" y="-330.1" fill="#000" font-family="Times,serif" font-size="14" text-anchor="start">Public:</text><text x="1307.185" y="-313.3" fill="#000" font-family="Times,serif" font-size="14" text-anchor="start">recoverERC20(tokenAddress: address, tokenAmount: uint256)</text></g><g id="edge11" class="edge"><title>8-&gt;1</title><path fill="none" stroke="#000" d="M1475.6144,-396.6629C1459.8908,-444.5812 1434.5059,-521.9429 1412.4161,-589.2623"/><polygon fill="none" stroke="#000" points="1402.405 -586.093 1403.028 -617.871 1422.359 -592.64 1402.405 -586.093"/></g><g id="edge12" class="edge"><title>8-&gt;2</title><path fill="none" stroke="#000" stroke-dasharray="5 2" d="M1557.3525,-396.4986C1581.7714,-417.2544 1606.6138,-444.0606 1619.6964,-474.8 1705.9196,-677.3927 1709.2097,-769.0393 1619.6964,-970.2 1615.4123,-979.8275 1610.2179,-989.1145 1604.3398,-998.032"/><polygon fill="#000" stroke="#000" points="1601.315 -996.253 1598.502 -1006.468 1607.071 -1000.236 1601.315 -996.253"/></g><g id="node10" class="node"><title>9</title><polygon fill="#f2f2f2" stroke="#000" points="1289.459 -8.9 1289.459 -217.7 1691.934 -217.7 1691.934 -8.9 1289.459 -8.9"/><text x="1490.696" y="-201.1" fill="#000" font-family="Times,serif" font-size="14" text-anchor="middle">ServiceReceiver</text><polyline fill="none" stroke="#000" points="1289.459 -192.9 1691.934 -192.9"/><text x="1297.459" y="-176.3" fill="#000" font-family="Times,serif" font-size="14" text-anchor="start">Private:</text><text x="1297.459" y="-159.5" fill="#000" font-family="Times,serif" font-size="14" text-anchor="start">_prices: mapping(bytes32=&gt;uint256)</text><polyline fill="none" stroke="#000" points="1289.459 -151.3 1691.934 -151.3"/><text x="1297.459" y="-134.7" fill="#000" font-family="Times,serif" font-size="14" text-anchor="start">Private:</text><text x="1297.459" y="-117.9" fill="#000" font-family="Times,serif" font-size="14" text-anchor="start">_toBytes32(serviceName: string): bytes32</text><text x="1297.459" y="-101.1" fill="#000" font-family="Times,serif" font-size="14" text-anchor="start">Public:</text><text x="1297.459" y="-84.3" fill="#000" font-family="Times,serif" font-size="14" text-anchor="start">&lt;&lt;payable&gt;&gt; pay(serviceName: string)</text><text x="1297.459" y="-67.5" fill="#000" font-family="Times,serif" font-size="14" text-anchor="start">&lt;&lt;event&gt;&gt; Created(serviceName: string, serviceAddress: address)</text><text x="1297.459" y="-50.7" fill="#000" font-family="Times,serif" font-size="14" text-anchor="start">getPrice(serviceName: string): uint256</text><text x="1297.459" y="-33.9" fill="#000" font-family="Times,serif" font-size="14" text-anchor="start">setPrice(serviceName: string, amount: uint256)</text><text x="1297.459" y="-17.1" fill="#000" font-family="Times,serif" font-size="14" text-anchor="start">withdraw(amount: uint256)</text></g><g id="edge13" class="edge"><title>9-&gt;8</title><path fill="none" stroke="#000" d="M1490.6964,-217.7726C1490.6964,-236.94 1490.6964,-256.6096 1490.6964,-274.7431"/><polygon fill="none" stroke="#000" points="1480.197 -274.82 1490.696 -304.82 1501.197 -274.82 1480.197 -274.82"/></g><g id="node11" class="node"><title>10</title><polygon fill="#f2f2f2" stroke="#000" points="194.656 -305.1 194.656 -396.3 510.736 -396.3 510.736 -305.1 194.656 -305.1"/><text x="352.696" y="-379.7" fill="#000" font-family="Times,serif" font-size="14" text-anchor="middle">ServicePayer</text><polyline fill="none" stroke="#000" points="194.656 -371.5 510.736 -371.5"/><polyline fill="none" stroke="#000" points="194.656 -346.7 510.736 -346.7"/><text x="202.656" y="-330.1" fill="#000" font-family="Times,serif" font-size="14" text-anchor="start">Public:</text><text x="202.656" y="-313.3" fill="#000" font-family="Times,serif" font-size="14" text-anchor="start">constructor(receiver: address, serviceName: string)</text></g><g id="node12" class="node"><title>11</title><polygon fill="#f2f2f2" stroke="#000" points="389.166 -.5 389.166 -226.1 1076.227 -226.1 1076.227 -.5 389.166 -.5"/><text x="732.696" y="-209.5" fill="#000" font-family="Times,serif" font-size="14" text-anchor="middle">CommonERC20</text><polyline fill="none" stroke="#000" points="389.166 -201.3 1076.227 -201.3"/><text x="397.166" y="-184.7" fill="#000" font-family="Times,serif" font-size="14" text-anchor="start">Private:</text><text x="397.166" y="-167.9" fill="#000" font-family="Times,serif" font-size="14" text-anchor="start">_mintingFinished: bool</text><polyline fill="none" stroke="#000" points="389.166 -159.7 1076.227 -159.7"/><text x="397.166" y="-143.1" fill="#000" font-family="Times,serif" font-size="14" text-anchor="start">Internal:</text><text x="397.166" y="-126.3" fill="#000" font-family="Times,serif" font-size="14" text-anchor="start">_beforeTokenTransfer(from: address, to: address, amount: uint256)</text><text x="397.166" y="-109.5" fill="#000" font-family="Times,serif" font-size="14" text-anchor="start">Public:</text><text x="397.166" y="-92.7" fill="#000" font-family="Times,serif" font-size="14" text-anchor="start">&lt;&lt;event&gt;&gt; MintFinished()</text><text x="397.166" y="-75.9" fill="#000" font-family="Times,serif" font-size="14" text-anchor="start">&lt;&lt;modifier&gt;&gt; canMint()</text><text x="397.166" y="-59.1" fill="#000" font-family="Times,serif" font-size="14" text-anchor="start">constructor(name: string, symbol: string, decimals: uint8, cap: uint256, initialBalance: uint256, feeReceiver: address)</text><text x="397.166" y="-42.3" fill="#000" font-family="Times,serif" font-size="14" text-anchor="start">mintingFinished(): bool</text><text x="397.166" y="-25.5" fill="#000" font-family="Times,serif" font-size="14" text-anchor="start">mint(to: address, value: uint256)</text><text x="397.166" y="-8.7" fill="#000" font-family="Times,serif" font-size="14" text-anchor="start">finishMinting()</text></g><g id="edge16" class="edge"><title>11-&gt;1</title><path fill="none" stroke="#000" d="M1076.546,-183.7275C1155.1865,-206.0902 1223.8896,-232.8441 1251.6964,-262.6 1306.3944,-321.132 1270.4983,-361.0228 1289.6964,-438.8 1301.8434,-488.0111 1316.4302,-541.6547 1329.7454,-588.9173"/><polygon fill="none" stroke="#000" points="1319.652 -591.81 1337.947 -617.802 1339.853 -586.074 1319.652 -591.81"/></g><g id="edge15" class="edge"><title>11-&gt;6</title><path fill="none" stroke="#000" d="M906.8533,-226.264C930.5575,-241.6394 954.4601,-257.1435 976.9652,-271.741"/><polygon fill="none" stroke="#000" points="971.286 -280.572 1002.169 -288.089 982.714 -262.954 971.286 -280.572"/></g><g id="edge14" class="edge"><title>11-&gt;7</title><path fill="none" stroke="#000" d="M732.6964,-226.4377C732.6964,-228.5519 732.6964,-230.6685 732.6964,-232.7846"/><polygon fill="none" stroke="#000" points="722.197 -233.049 732.696 -263.049 743.197 -233.049 722.197 -233.049"/></g><g id="edge17" class="edge"><title>11-&gt;10</title><path fill="none" stroke="#000" d="M551.8778,-226.264C517.3985,-247.8045 482.5151,-269.5975 451.7835,-288.7966"/><polygon fill="none" stroke="#000" points="445.84 -280.129 425.96 -304.929 456.967 -297.939 445.84 -280.129"/></g></g></svg>