<svg xmlns="http://www.w3.org/2000/svg" xmlns:xlink="http://www.w3.org/1999/xlink" width="3097pt" height="1409pt" viewBox="0 0 3097.11 1408.8"><g id="graph0" class="graph" transform="scale(1 1) rotate(0) translate(4 1404.8)"><title>UmlClassDiagram</title><polygon fill="#fff" stroke="transparent" points="-4 4 -4 -1404.8 3093.108 -1404.8 3093.108 4 -4 4"/><g id="node1" class="node"><title>0</title><polygon fill="#f2f2f2" stroke="#000" points="375.624 -1216.7 375.624 -1341.5 593.769 -1341.5 593.769 -1216.7 375.624 -1216.7"/><text x="484.696" y="-1324.9" fill="#000" font-family="Times,serif" font-size="14" text-anchor="middle">&lt;&lt;Abstract&gt;&gt;</text><text x="484.696" y="-1308.1" fill="#000" font-family="Times,serif" font-size="14" text-anchor="middle">Context</text><polyline fill="none" stroke="#000" points="375.624 -1299.9 593.769 -1299.9"/><polyline fill="none" stroke="#000" points="375.624 -1275.1 593.769 -1275.1"/><text x="383.624" y="-1258.5" fill="#000" font-family="Times,serif" font-size="14" text-anchor="start">Internal:</text><text x="383.624" y="-1241.7" fill="#000" font-family="Times,serif" font-size="14" text-anchor="start">_msgSender(): (payable: address)</text><text x="383.624" y="-1224.9" fill="#000" font-family="Times,serif" font-size="14" text-anchor="start">_msgData(): bytes</text></g><g id="node2" class="node"><title>1</title><polygon fill="#f2f2f2" stroke="#000" points="1279.397 -1157.9 1279.397 -1400.3 1717.996 -1400.3 1717.996 -1157.9 1279.397 -1157.9"/><text x="1498.696" y="-1383.7" fill="#000" font-family="Times,serif" font-size="14" text-anchor="middle">&lt;&lt;Interface&gt;&gt;</text><text x="1498.696" y="-1366.9" fill="#000" font-family="Times,serif" font-size="14" text-anchor="middle">IERC20</text><polyline fill="none" stroke="#000" points="1279.397 -1358.7 1717.996 -1358.7"/><polyline fill="none" stroke="#000" points="1279.397 -1333.9 1717.996 -1333.9"/><text x="1287.397" y="-1317.3" fill="#000" font-family="Times,serif" font-size="14" text-anchor="start">External:</text><text x="1287.397" y="-1300.5" fill="#000" font-family="Times,serif" font-size="14" text-anchor="start">totalSupply(): uint256</text><text x="1287.397" y="-1283.7" fill="#000" font-family="Times,serif" font-size="14" text-anchor="start">balanceOf(account: address): uint256</text><text x="1287.397" y="-1266.9" fill="#000" font-family="Times,serif" font-size="14" text-anchor="start">transfer(recipient: address, amount: uint256): bool</text><text x="1287.397" y="-1250.1" fill="#000" font-family="Times,serif" font-size="14" text-anchor="start">allowance(owner: address, spender: address): uint256</text><text x="1287.397" y="-1233.3" fill="#000" font-family="Times,serif" font-size="14" text-anchor="start">approve(spender: address, amount: uint256): bool</text><text x="1287.397" y="-1216.5" fill="#000" font-family="Times,serif" font-size="14" text-anchor="start">transferFrom(sender: address, recipient: address, amount: uint256): bool</text><text x="1287.397" y="-1199.7" fill="#000" font-family="Times,serif" font-size="14" text-anchor="start">Public:</text><text x="1287.397" y="-1182.9" fill="#000" font-family="Times,serif" font-size="14" text-anchor="start">&lt;&lt;event&gt;&gt; Transfer(from: address, to: address, value: uint256)</text><text x="1287.397" y="-1166.1" fill="#000" font-family="Times,serif" font-size="14" text-anchor="start">&lt;&lt;event&gt;&gt; Approval(owner: address, spender: address, value: uint256)</text></g><g id="node3" class="node"><title>2</title><polygon fill="#f2f2f2" stroke="#000" points="0 -1166.3 0 -1391.9 357.393 -1391.9 357.393 -1166.3 0 -1166.3"/><text x="178.696" y="-1375.3" fill="#000" font-family="Times,serif" font-size="14" text-anchor="middle">&lt;&lt;Library&gt;&gt;</text><text x="178.696" y="-1358.5" fill="#000" font-family="Times,serif" font-size="14" text-anchor="middle">SafeMath</text><polyline fill="none" stroke="#000" points="0 -1350.3 357.393 -1350.3"/><polyline fill="none" stroke="#000" points="0 -1325.5 357.393 -1325.5"/><text x="8" y="-1308.9" fill="#000" font-family="Times,serif" font-size="14" text-anchor="start">Internal:</text><text x="8" y="-1292.1" fill="#000" font-family="Times,serif" font-size="14" text-anchor="start">add(a: uint256, b: uint256): uint256</text><text x="8" y="-1275.3" fill="#000" font-family="Times,serif" font-size="14" text-anchor="start">sub(a: uint256, b: uint256): uint256</text><text x="8" y="-1258.5" fill="#000" font-family="Times,serif" font-size="14" text-anchor="start">sub(a: uint256, b: uint256, errorMessage: string): uint256</text><text x="8" y="-1241.7" fill="#000" font-family="Times,serif" font-size="14" text-anchor="start">mul(a: uint256, b: uint256): uint256</text><text x="8" y="-1224.9" fill="#000" font-family="Times,serif" font-size="14" text-anchor="start">div(a: uint256, b: uint256): uint256</text><text x="8" y="-1208.1" fill="#000" font-family="Times,serif" font-size="14" text-anchor="start">div(a: uint256, b: uint256, errorMessage: string): uint256</text><text x="8" y="-1191.3" fill="#000" font-family="Times,serif" font-size="14" text-anchor="start">mod(a: uint256, b: uint256): uint256</text><text x="8" y="-1174.5" fill="#000" font-family="Times,serif" font-size="14" text-anchor="start">mod(a: uint256, b: uint256, errorMessage: string): uint256</text></g><g id="node4" class="node"><title>3</title><polygon fill="#f2f2f2" stroke="#000" points="664.479 -1166.3 664.479 -1391.9 1260.914 -1391.9 1260.914 -1166.3 664.479 -1166.3"/><text x="962.696" y="-1375.3" fill="#000" font-family="Times,serif" font-size="14" text-anchor="middle">&lt;&lt;Library&gt;&gt;</text><text x="962.696" y="-1358.5" fill="#000" font-family="Times,serif" font-size="14" text-anchor="middle">Address</text><polyline fill="none" stroke="#000" points="664.479 -1350.3 1260.914 -1350.3"/><polyline fill="none" stroke="#000" points="664.479 -1325.5 1260.914 -1325.5"/><text x="672.479" y="-1308.9" fill="#000" font-family="Times,serif" font-size="14" text-anchor="start">Private:</text><text x="672.479" y="-1292.1" fill="#000" font-family="Times,serif" font-size="14" text-anchor="start">_functionCallWithValue(target: address, data: bytes, weiValue: uint256, errorMessage: string): bytes</text><text x="672.479" y="-1275.3" fill="#000" font-family="Times,serif" font-size="14" text-anchor="start">Internal:</text><text x="672.479" y="-1258.5" fill="#000" font-family="Times,serif" font-size="14" text-anchor="start">isContract(account: address): bool</text><text x="672.479" y="-1241.7" fill="#000" font-family="Times,serif" font-size="14" text-anchor="start">sendValue(recipient: address, amount: uint256)</text><text x="672.479" y="-1224.9" fill="#000" font-family="Times,serif" font-size="14" text-anchor="start">functionCall(target: address, data: bytes): bytes</text><text x="672.479" y="-1208.1" fill="#000" font-family="Times,serif" font-size="14" text-anchor="start">functionCall(target: address, data: bytes, errorMessage: string): bytes</text><text x="672.479" y="-1191.3" fill="#000" font-family="Times,serif" font-size="14" text-anchor="start">functionCallWithValue(target: address, data: bytes, value: uint256): bytes</text><text x="672.479" y="-1174.5" fill="#000" font-family="Times,serif" font-size="14" text-anchor="start">functionCallWithValue(target: address, data: bytes, value: uint256, errorMessage: string): bytes</text></g><g id="node5" class="node"><title>4</title><polygon fill="#f2f2f2" stroke="#000" points="745.146 -626.5 745.146 -1120.9 1180.246 -1120.9 1180.246 -626.5 745.146 -626.5"/><text x="962.696" y="-1104.3" fill="#000" font-family="Times,serif" font-size="14" text-anchor="middle">ERC20</text><polyline fill="none" stroke="#000" points="745.146 -1096.1 1180.246 -1096.1"/><text x="753.146" y="-1079.5" fill="#000" font-family="Times,serif" font-size="14" text-anchor="start">Private:</text><text x="753.146" y="-1062.7" fill="#000" font-family="Times,serif" font-size="14" text-anchor="start">_balances: mapping(address=&gt;uint256)</text><text x="753.146" y="-1045.9" fill="#000" font-family="Times,serif" font-size="14" text-anchor="start">_allowances: mapping(address=&gt;mapping(address=&gt;uint256))</text><text x="753.146" y="-1029.1" fill="#000" font-family="Times,serif" font-size="14" text-anchor="start">_totalSupply: uint256</text><text x="753.146" y="-1012.3" fill="#000" font-family="Times,serif" font-size="14" text-anchor="start">_name: string</text><text x="753.146" y="-995.5" fill="#000" font-family="Times,serif" font-size="14" text-anchor="start">_symbol: string</text><text x="753.146" y="-978.7" fill="#000" font-family="Times,serif" font-size="14" text-anchor="start">_decimals: uint8</text><polyline fill="none" stroke="#000" points="745.146 -970.5 1180.246 -970.5"/><text x="753.146" y="-953.9" fill="#000" font-family="Times,serif" font-size="14" text-anchor="start">Internal:</text><text x="753.146" y="-937.1" fill="#000" font-family="Times,serif" font-size="14" text-anchor="start">_transfer(sender: address, recipient: address, amount: uint256)</text><text x="753.146" y="-920.3" fill="#000" font-family="Times,serif" font-size="14" text-anchor="start">_mint(account: address, amount: uint256)</text><text x="753.146" y="-903.5" fill="#000" font-family="Times,serif" font-size="14" text-anchor="start">_burn(account: address, amount: uint256)</text><text x="753.146" y="-886.7" fill="#000" font-family="Times,serif" font-size="14" text-anchor="start">_approve(owner: address, spender: address, amount: uint256)</text><text x="753.146" y="-869.9" fill="#000" font-family="Times,serif" font-size="14" text-anchor="start">_setupDecimals(decimals_: uint8)</text><text x="753.146" y="-853.1" fill="#000" font-family="Times,serif" font-size="14" text-anchor="start">_beforeTokenTransfer(from: address, to: address, amount: uint256)</text><text x="753.146" y="-836.3" fill="#000" font-family="Times,serif" font-size="14" text-anchor="start">Public:</text><text x="753.146" y="-819.5" fill="#000" font-family="Times,serif" font-size="14" text-anchor="start">constructor(name_: string, symbol_: string)</text><text x="753.146" y="-802.7" fill="#000" font-family="Times,serif" font-size="14" text-anchor="start">name(): string</text><text x="753.146" y="-785.9" fill="#000" font-family="Times,serif" font-size="14" text-anchor="start">symbol(): string</text><text x="753.146" y="-769.1" fill="#000" font-family="Times,serif" font-size="14" text-anchor="start">decimals(): uint8</text><text x="753.146" y="-752.3" fill="#000" font-family="Times,serif" font-size="14" text-anchor="start">totalSupply(): uint256</text><text x="753.146" y="-735.5" fill="#000" font-family="Times,serif" font-size="14" text-anchor="start">balanceOf(account: address): uint256</text><text x="753.146" y="-718.7" fill="#000" font-family="Times,serif" font-size="14" text-anchor="start">transfer(recipient: address, amount: uint256): bool</text><text x="753.146" y="-701.9" fill="#000" font-family="Times,serif" font-size="14" text-anchor="start">allowance(owner: address, spender: address): uint256</text><text x="753.146" y="-685.1" fill="#000" font-family="Times,serif" font-size="14" text-anchor="start">approve(spender: address, amount: uint256): bool</text><text x="753.146" y="-668.3" fill="#000" font-family="Times,serif" font-size="14" text-anchor="start">transferFrom(sender: address, recipient: address, amount: uint256): bool</text><text x="753.146" y="-651.5" fill="#000" font-family="Times,serif" font-size="14" text-anchor="start">increaseAllowance(spender: address, addedValue: uint256): bool</text><text x="753.146" y="-634.7" fill="#000" font-family="Times,serif" font-size="14" text-anchor="start">decreaseAllowance(spender: address, subtractedValue: uint256): bool</text></g><g id="edge1" class="edge"><title>4-&gt;0</title><path fill="none" stroke="#000" d="M744.884,-1114.5996C741.8321,-1116.9107 738.7691,-1119.1788 735.6964,-1121.4 704.0981,-1144.2417 689.519,-1138.0033 655.6964,-1157.4 633.8915,-1169.9048 611.4214,-1184.507 590.228,-1199.1685"/><polygon fill="none" stroke="#000" points="584.011 -1190.705 565.598 -1216.613 596.148 -1207.842 584.011 -1190.705"/></g><g id="edge2" class="edge"><title>4-&gt;1</title><path fill="none" stroke="#000" stroke-dasharray="5 2" d="M1180.4996,-1080.3621C1197.818,-1094.6667 1215.3323,-1108.5054 1232.6964,-1121.4 1241.512,-1127.9465 1250.6169,-1134.4536 1259.9086,-1140.8858"/><polygon fill="none" stroke="#000" points="1254.125 -1149.65 1284.87 -1157.713 1265.864 -1132.237 1254.125 -1149.65"/></g><g id="edge3" class="edge"><title>4-&gt;2</title><path fill="none" stroke="#000" stroke-dasharray="5 2" d="M745.023,-1116.525C741.9367,-1118.2102 738.8276,-1119.8365 735.6964,-1121.4 588.2747,-1195.0128 522.2674,-1103.0892 366.6964,-1157.4 362.3459,-1158.9188 357.9953,-1160.5578 353.6539,-1162.3026"/><polygon fill="#000" stroke="#000" points="352.033 -1159.187 344.168 -1166.286 354.743 -1165.641 352.033 -1159.187"/></g><g id="edge4" class="edge"><title>4-&gt;3</title><path fill="none" stroke="#000" stroke-dasharray="5 2" d="M962.6964,-1120.9105C962.6964,-1132.7918 962.6964,-1144.4585 962.6964,-1155.7362"/><polygon fill="#000" stroke="#000" points="959.197 -1155.979 962.696 -1165.979 966.197 -1155.979 959.197 -1155.979"/></g><g id="node6" class="node"><title>5</title><polygon fill="#f2f2f2" stroke="#000" points="33.003 -363.9 33.003 -488.7 320.39 -488.7 320.39 -363.9 33.003 -363.9"/><text x="176.696" y="-472.1" fill="#000" font-family="Times,serif" font-size="14" text-anchor="middle">&lt;&lt;Abstract&gt;&gt;</text><text x="176.696" y="-455.3" fill="#000" font-family="Times,serif" font-size="14" text-anchor="middle">ERC20Burnable</text><polyline fill="none" stroke="#000" points="33.003 -447.1 320.39 -447.1"/><polyline fill="none" stroke="#000" points="33.003 -422.3 320.39 -422.3"/><text x="41.003" y="-405.7" fill="#000" font-family="Times,serif" font-size="14" text-anchor="start">Public:</text><text x="41.003" y="-388.9" fill="#000" font-family="Times,serif" font-size="14" text-anchor="start">burn(amount: uint256)</text><text x="41.003" y="-372.1" fill="#000" font-family="Times,serif" font-size="14" text-anchor="start">burnFrom(account: address, amount: uint256)</text></g><g id="edge5" class="edge"><title>5-&gt;0</title><path fill="none" stroke="#000" d="M173.0168,-488.938C165.4038,-641.4411 154.6883,-1026.4742 233.6964,-1121.4 272.8719,-1168.4681 313.9399,-1126.3054 366.6964,-1157.4 383.8693,-1167.5217 400.2156,-1180.807 414.9703,-1194.8733"/><polygon fill="none" stroke="#000" points="407.59 -1202.344 436.042 -1216.512 422.635 -1187.694 407.59 -1202.344"/></g><g id="edge7" class="edge"><title>5-&gt;2</title><path fill="none" stroke="#000" stroke-dasharray="5 2" d="M171.1903,-488.7541C168.0014,-528.0984 164.3076,-579.9775 162.6964,-626 154.9928,-846.043 151.5698,-901.5035 162.6964,-1121.4 163.2611,-1132.56 164.0492,-1144.1472 164.9756,-1155.7453"/><polygon fill="#000" stroke="#000" points="161.506 -1156.255 165.823 -1165.93 168.482 -1155.674 161.506 -1156.255"/></g><g id="edge6" class="edge"><title>5-&gt;4</title><path fill="none" stroke="#000" d="M217.4368,-488.8818C244.6062,-524.994 283.7195,-567.5744 329.6964,-590 483.4505,-664.9946 564.0258,-558.9216 717.1742,-618.5019"/><polygon fill="none" stroke="#000" points="713.36 -628.296 745.043 -630.836 721.859 -609.093 713.36 -628.296"/></g><g id="node7" class="node"><title>6</title><polygon fill="#f2f2f2" stroke="#000" points="672.568 -338.7 672.568 -513.9 1080.824 -513.9 1080.824 -338.7 672.568 -338.7"/><text x="876.696" y="-497.3" fill="#000" font-family="Times,serif" font-size="14" text-anchor="middle">&lt;&lt;Abstract&gt;&gt;</text><text x="876.696" y="-480.5" fill="#000" font-family="Times,serif" font-size="14" text-anchor="middle">ERC20Capped</text><polyline fill="none" stroke="#000" points="672.568 -472.3 1080.824 -472.3"/><text x="680.568" y="-455.7" fill="#000" font-family="Times,serif" font-size="14" text-anchor="start">Private:</text><text x="680.568" y="-438.9" fill="#000" font-family="Times,serif" font-size="14" text-anchor="start">_cap: uint256</text><polyline fill="none" stroke="#000" points="672.568 -430.7 1080.824 -430.7"/><text x="680.568" y="-414.1" fill="#000" font-family="Times,serif" font-size="14" text-anchor="start">Internal:</text><text x="680.568" y="-397.3" fill="#000" font-family="Times,serif" font-size="14" text-anchor="start">_beforeTokenTransfer(from: address, to: address, amount: uint256)</text><text x="680.568" y="-380.5" fill="#000" font-family="Times,serif" font-size="14" text-anchor="start">Public:</text><text x="680.568" y="-363.7" fill="#000" font-family="Times,serif" font-size="14" text-anchor="start">constructor(cap_: uint256)</text><text x="680.568" y="-346.9" fill="#000" font-family="Times,serif" font-size="14" text-anchor="start">cap(): uint256</text></g><g id="edge9" class="edge"><title>6-&gt;2</title><path fill="none" stroke="#000" stroke-dasharray="5 2" d="M786.3549,-514.0992C750.8843,-543.3477 708.0589,-572.8243 663.6964,-590 574.2747,-624.6212 301.5174,-558.2122 233.6964,-626 197.085,-662.5935 184.7323,-977.1449 180.6496,-1156.0143"/><polygon fill="#000" stroke="#000" points="177.145 -1156.199 180.421 -1166.275 184.143 -1156.355 177.145 -1156.199"/></g><g id="edge8" class="edge"><title>6-&gt;4</title><path fill="none" stroke="#000" d="M893.5846,-514.158C898.3173,-538.7792 903.7292,-566.9337 909.3947,-596.407"/><polygon fill="none" stroke="#000" points="899.154 -598.759 915.129 -626.238 919.777 -594.795 899.154 -598.759"/></g><g id="node8" class="node"><title>7</title><polygon fill="#f2f2f2" stroke="#000" points="2271.279 -1225.1 2271.279 -1333.1 2548.114 -1333.1 2548.114 -1225.1 2271.279 -1225.1"/><text x="2409.696" y="-1316.5" fill="#000" font-family="Times,serif" font-size="14" text-anchor="middle">&lt;&lt;Interface&gt;&gt;</text><text x="2409.696" y="-1299.7" fill="#000" font-family="Times,serif" font-size="14" text-anchor="middle">IERC165</text><polyline fill="none" stroke="#000" points="2271.279 -1291.5 2548.114 -1291.5"/><polyline fill="none" stroke="#000" points="2271.279 -1266.7 2548.114 -1266.7"/><text x="2279.279" y="-1250.1" fill="#000" font-family="Times,serif" font-size="14" text-anchor="start">External:</text><text x="2279.279" y="-1233.3" fill="#000" font-family="Times,serif" font-size="14" text-anchor="start">supportsInterface(interfaceId: bytes4): bool</text></g><g id="node9" class="node"><title>8</title><polygon fill="#f2f2f2" stroke="#000" points="1274.589 -777.7 1274.589 -969.7 1768.804 -969.7 1768.804 -777.7 1274.589 -777.7"/><text x="1521.696" y="-953.1" fill="#000" font-family="Times,serif" font-size="14" text-anchor="middle">&lt;&lt;Interface&gt;&gt;</text><text x="1521.696" y="-936.3" fill="#000" font-family="Times,serif" font-size="14" text-anchor="middle">IERC1363</text><polyline fill="none" stroke="#000" points="1274.589 -928.1 1768.804 -928.1"/><polyline fill="none" stroke="#000" points="1274.589 -903.3 1768.804 -903.3"/><text x="1282.589" y="-886.7" fill="#000" font-family="Times,serif" font-size="14" text-anchor="start">External:</text><text x="1282.589" y="-869.9" fill="#000" font-family="Times,serif" font-size="14" text-anchor="start">transferAndCall(to: address, value: uint256): bool</text><text x="1282.589" y="-853.1" fill="#000" font-family="Times,serif" font-size="14" text-anchor="start">transferAndCall(to: address, value: uint256, data: bytes): bool</text><text x="1282.589" y="-836.3" fill="#000" font-family="Times,serif" font-size="14" text-anchor="start">transferFromAndCall(from: address, to: address, value: uint256): bool</text><text x="1282.589" y="-819.5" fill="#000" font-family="Times,serif" font-size="14" text-anchor="start">transferFromAndCall(from: address, to: address, value: uint256, data: bytes): bool</text><text x="1282.589" y="-802.7" fill="#000" font-family="Times,serif" font-size="14" text-anchor="start">approveAndCall(spender: address, value: uint256): bool</text><text x="1282.589" y="-785.9" fill="#000" font-family="Times,serif" font-size="14" text-anchor="start">approveAndCall(spender: address, value: uint256, data: bytes): bool</text></g><g id="edge10" class="edge"><title>8-&gt;1</title><path fill="none" stroke="#000" stroke-dasharray="5 2" d="M1516.2457,-969.7741C1513.5744,-1016.8592 1510.2943,-1074.675 1507.2957,-1127.5288"/><polygon fill="none" stroke="#000" points="1496.81 -1126.989 1505.593 -1157.535 1517.776 -1128.178 1496.81 -1126.989"/></g><g id="edge11" class="edge"><title>8-&gt;7</title><path fill="none" stroke="#000" stroke-dasharray="5 2" d="M1598.8849,-969.9648C1645.4845,-1022.0236 1709.0249,-1083.2826 1777.6964,-1121.4 1922.5158,-1201.7848 2108.4998,-1241.8089 2241.1405,-1261.3429"/><polygon fill="none" stroke="#000" points="2239.954 -1271.779 2271.121 -1265.544 2242.868 -1250.982 2239.954 -1271.779"/></g><g id="node10" class="node"><title>9</title><polygon fill="#f2f2f2" stroke="#000" points="1786.397 -819.7 1786.397 -927.7 2320.996 -927.7 2320.996 -819.7 1786.397 -819.7"/><text x="2053.696" y="-911.1" fill="#000" font-family="Times,serif" font-size="14" text-anchor="middle">&lt;&lt;Interface&gt;&gt;</text><text x="2053.696" y="-894.3" fill="#000" font-family="Times,serif" font-size="14" text-anchor="middle">IERC1363Receiver</text><polyline fill="none" stroke="#000" points="1786.397 -886.1 2320.996 -886.1"/><polyline fill="none" stroke="#000" points="1786.397 -861.3 2320.996 -861.3"/><text x="1794.397" y="-844.7" fill="#000" font-family="Times,serif" font-size="14" text-anchor="start">External:</text><text x="1794.397" y="-827.9" fill="#000" font-family="Times,serif" font-size="14" text-anchor="start">onTransferReceived(operator: address, from: address, value: uint256, data: bytes): bytes4</text></g><g id="node11" class="node"><title>10</title><polygon fill="#f2f2f2" stroke="#000" points="2339.285 -819.7 2339.285 -927.7 2784.108 -927.7 2784.108 -819.7 2339.285 -819.7"/><text x="2561.696" y="-911.1" fill="#000" font-family="Times,serif" font-size="14" text-anchor="middle">&lt;&lt;Interface&gt;&gt;</text><text x="2561.696" y="-894.3" fill="#000" font-family="Times,serif" font-size="14" text-anchor="middle">IERC1363Spender</text><polyline fill="none" stroke="#000" points="2339.285 -886.1 2784.108 -886.1"/><polyline fill="none" stroke="#000" points="2339.285 -861.3 2784.108 -861.3"/><text x="2347.285" y="-844.7" fill="#000" font-family="Times,serif" font-size="14" text-anchor="start">External:</text><text x="2347.285" y="-827.9" fill="#000" font-family="Times,serif" font-size="14" text-anchor="start">onApprovalReceived(owner: address, value: uint256, data: bytes): bytes4</text></g><g id="node12" class="node"><title>11</title><polygon fill="#f2f2f2" stroke="#000" points="1583.584 -.5 1583.584 -226.1 2075.809 -226.1 2075.809 -.5 1583.584 -.5"/><text x="1829.696" y="-209.5" fill="#000" font-family="Times,serif" font-size="14" text-anchor="middle">&lt;&lt;Library&gt;&gt;</text><text x="1829.696" y="-192.7" fill="#000" font-family="Times,serif" font-size="14" text-anchor="middle">ERC165Checker</text><polyline fill="none" stroke="#000" points="1583.584 -184.5 2075.809 -184.5"/><text x="1591.584" y="-167.9" fill="#000" font-family="Times,serif" font-size="14" text-anchor="start">Private:</text><text x="1591.584" y="-151.1" fill="#000" font-family="Times,serif" font-size="14" text-anchor="start">_INTERFACE_ID_INVALID: bytes4</text><text x="1591.584" y="-134.3" fill="#000" font-family="Times,serif" font-size="14" text-anchor="start">_INTERFACE_ID_ERC165: bytes4</text><polyline fill="none" stroke="#000" points="1583.584 -126.1 2075.809 -126.1"/><text x="1591.584" y="-109.5" fill="#000" font-family="Times,serif" font-size="14" text-anchor="start">Private:</text><text x="1591.584" y="-92.7" fill="#000" font-family="Times,serif" font-size="14" text-anchor="start">_supportsERC165Interface(account: address, interfaceId: bytes4): bool</text><text x="1591.584" y="-75.9" fill="#000" font-family="Times,serif" font-size="14" text-anchor="start">_callERC165SupportsInterface(account: address, interfaceId: bytes4): (bool, bool)</text><text x="1591.584" y="-59.1" fill="#000" font-family="Times,serif" font-size="14" text-anchor="start">Internal:</text><text x="1591.584" y="-42.3" fill="#000" font-family="Times,serif" font-size="14" text-anchor="start">supportsERC165(account: address): bool</text><text x="1591.584" y="-25.5" fill="#000" font-family="Times,serif" font-size="14" text-anchor="start">supportsInterface(account: address, interfaceId: bytes4): bool</text><text x="1591.584" y="-8.7" fill="#000" font-family="Times,serif" font-size="14" text-anchor="start">supportsAllInterfaces(account: address, interfaceIds: bytes4[]): bool</text></g><g id="node13" class="node"><title>12</title><polygon fill="#f2f2f2" stroke="#000" points="2802.285 -777.7 2802.285 -969.7 3089.108 -969.7 3089.108 -777.7 2802.285 -777.7"/><text x="2945.696" y="-953.1" fill="#000" font-family="Times,serif" font-size="14" text-anchor="middle">&lt;&lt;Abstract&gt;&gt;</text><text x="2945.696" y="-936.3" fill="#000" font-family="Times,serif" font-size="14" text-anchor="middle">ERC165</text><polyline fill="none" stroke="#000" points="2802.285 -928.1 3089.108 -928.1"/><text x="2810.285" y="-911.5" fill="#000" font-family="Times,serif" font-size="14" text-anchor="start">Private:</text><text x="2810.285" y="-894.7" fill="#000" font-family="Times,serif" font-size="14" text-anchor="start">_INTERFACE_ID_ERC165: bytes4</text><text x="2810.285" y="-877.9" fill="#000" font-family="Times,serif" font-size="14" text-anchor="start">_supportedInterfaces: mapping(bytes4=&gt;bool)</text><polyline fill="none" stroke="#000" points="2802.285 -869.7 3089.108 -869.7"/><text x="2810.285" y="-853.1" fill="#000" font-family="Times,serif" font-size="14" text-anchor="start">Internal:</text><text x="2810.285" y="-836.3" fill="#000" font-family="Times,serif" font-size="14" text-anchor="start">_registerInterface(interfaceId: bytes4)</text><text x="2810.285" y="-819.5" fill="#000" font-family="Times,serif" font-size="14" text-anchor="start">Public:</text><text x="2810.285" y="-802.7" fill="#000" font-family="Times,serif" font-size="14" text-anchor="start">constructor()</text><text x="2810.285" y="-785.9" fill="#000" font-family="Times,serif" font-size="14" text-anchor="start">supportsInterface(interfaceId: bytes4): bool</text></g><g id="edge12" class="edge"><title>12-&gt;7</title><path fill="none" stroke="#000" stroke-dasharray="5 2" d="M2904.3402,-969.7754C2878.4629,-1020.4875 2840.8561,-1080.5023 2792.6964,-1121.4 2730.7755,-1173.9838 2648.9206,-1210.8682 2576.7832,-1235.6692"/><polygon fill="none" stroke="#000" points="2573.348 -1225.745 2548.119 -1245.078 2579.898 -1245.698 2573.348 -1225.745"/></g><g id="node14" class="node"><title>13</title><polygon fill="#f2f2f2" stroke="#000" points="1500.353 -263.1 1500.353 -589.5 2005.04 -589.5 2005.04 -263.1 1500.353 -263.1"/><text x="1752.696" y="-572.9" fill="#000" font-family="Times,serif" font-size="14" text-anchor="middle">ERC1363</text><polyline fill="none" stroke="#000" points="1500.353 -564.7 2005.04 -564.7"/><text x="1508.353" y="-548.1" fill="#000" font-family="Times,serif" font-size="14" text-anchor="start">Private:</text><text x="1508.353" y="-531.3" fill="#000" font-family="Times,serif" font-size="14" text-anchor="start">_ERC1363_RECEIVED: bytes4</text><text x="1508.353" y="-514.5" fill="#000" font-family="Times,serif" font-size="14" text-anchor="start">_ERC1363_APPROVED: bytes4</text><text x="1508.353" y="-497.7" fill="#000" font-family="Times,serif" font-size="14" text-anchor="start">Internal:</text><text x="1508.353" y="-480.9" fill="#000" font-family="Times,serif" font-size="14" text-anchor="start">_INTERFACE_ID_ERC1363_TRANSFER: bytes4</text><text x="1508.353" y="-464.1" fill="#000" font-family="Times,serif" font-size="14" text-anchor="start">_INTERFACE_ID_ERC1363_APPROVE: bytes4</text><polyline fill="none" stroke="#000" points="1500.353 -455.9 2005.04 -455.9"/><text x="1508.353" y="-439.3" fill="#000" font-family="Times,serif" font-size="14" text-anchor="start">Internal:</text><text x="1508.353" y="-422.5" fill="#000" font-family="Times,serif" font-size="14" text-anchor="start">_checkAndCallTransfer(from: address, to: address, value: uint256, data: bytes): bool</text><text x="1508.353" y="-405.7" fill="#000" font-family="Times,serif" font-size="14" text-anchor="start">_checkAndCallApprove(spender: address, value: uint256, data: bytes): bool</text><text x="1508.353" y="-388.9" fill="#000" font-family="Times,serif" font-size="14" text-anchor="start">Public:</text><text x="1508.353" y="-372.1" fill="#000" font-family="Times,serif" font-size="14" text-anchor="start">constructor(name: string, symbol: string)</text><text x="1508.353" y="-355.3" fill="#000" font-family="Times,serif" font-size="14" text-anchor="start">transferAndCall(to: address, value: uint256): bool</text><text x="1508.353" y="-338.5" fill="#000" font-family="Times,serif" font-size="14" text-anchor="start">transferAndCall(to: address, value: uint256, data: bytes): bool</text><text x="1508.353" y="-321.7" fill="#000" font-family="Times,serif" font-size="14" text-anchor="start">transferFromAndCall(from: address, to: address, value: uint256): bool</text><text x="1508.353" y="-304.9" fill="#000" font-family="Times,serif" font-size="14" text-anchor="start">transferFromAndCall(from: address, to: address, value: uint256, data: bytes): bool</text><text x="1508.353" y="-288.1" fill="#000" font-family="Times,serif" font-size="14" text-anchor="start">approveAndCall(spender: address, value: uint256): bool</text><text x="1508.353" y="-271.3" fill="#000" font-family="Times,serif" font-size="14" text-anchor="start">approveAndCall(spender: address, value: uint256, data: bytes): bool</text></g><g id="edge16" class="edge"><title>13-&gt;3</title><path fill="none" stroke="#000" stroke-dasharray="5 2" d="M1500.34,-586.6577C1497.4575,-587.8044 1494.5758,-588.9192 1491.6964,-590 1396.4724,-625.7419 1337.4101,-553.8735 1265.6964,-626 1108.6385,-783.9621 1307.6284,-932.4258 1189.6964,-1121.4 1181.3335,-1134.8008 1171.3679,-1147.3627 1160.3503,-1159.08"/><polygon fill="#000" stroke="#000" points="1157.823 -1156.658 1153.359 -1166.266 1162.841 -1161.539 1157.823 -1156.658"/></g><g id="edge13" class="edge"><title>13-&gt;4</title><path fill="none" stroke="#000" d="M1500.0181,-586.9553C1497.2438,-588.0023 1494.4694,-589.0178 1491.6964,-590 1375.2949,-631.2283 1321.2176,-575.0541 1207.5472,-621.2737"/><polygon fill="none" stroke="#000" points="1203.134 -611.746 1180.262 -633.818 1211.906 -630.826 1203.134 -611.746"/></g><g id="edge14" class="edge"><title>13-&gt;8</title><path fill="none" stroke="#000" stroke-dasharray="5 2" d="M1668.3195,-589.7208C1640.807,-643.0071 1610.7484,-701.2245 1585.0493,-750.9983"/><polygon fill="none" stroke="#000" points="1575.698 -746.223 1571.264 -777.697 1594.358 -755.857 1575.698 -746.223"/></g><g id="edge17" class="edge"><title>13-&gt;9</title><path fill="none" stroke="#000" stroke-dasharray="5 2" d="M1862.642,-589.7208C1914.3974,-666.6489 1973.0672,-753.8545 2011.5767,-811.0942"/><polygon fill="#000" stroke="#000" points="2008.858 -813.324 2017.344 -819.667 2014.666 -809.416 2008.858 -813.324"/></g><g id="edge18" class="edge"><title>13-&gt;10</title><path fill="none" stroke="#000" stroke-dasharray="5 2" d="M2005.1319,-484.8113C2110.7774,-516.4131 2231.5514,-562.3061 2329.6964,-626 2406.2463,-675.6792 2475.09,-755.9131 2517.532,-811.5454"/><polygon fill="#000" stroke="#000" points="2514.776 -813.704 2523.6 -819.568 2520.359 -809.481 2514.776 -813.704"/></g><g id="edge15" class="edge"><title>13-&gt;12</title><path fill="none" stroke="#000" d="M2005.2641,-451.3219C2270.9783,-481.7011 2667.6764,-539.8081 2792.6964,-626 2837.1197,-656.6265 2871.0987,-704.7817 2895.6193,-750.5215"/><polygon fill="none" stroke="#000" points="2886.278 -755.317 2909.146 -777.392 2905.035 -745.875 2886.278 -755.317"/></g><g id="node15" class="node"><title>14</title><polygon fill="#f2f2f2" stroke="#000" points="242.259 -769.3 242.259 -978.1 727.133 -978.1 727.133 -769.3 242.259 -769.3"/><text x="484.696" y="-961.5" fill="#000" font-family="Times,serif" font-size="14" text-anchor="middle">&lt;&lt;Abstract&gt;&gt;</text><text x="484.696" y="-944.7" fill="#000" font-family="Times,serif" font-size="14" text-anchor="middle">Ownable</text><polyline fill="none" stroke="#000" points="242.259 -936.5 727.133 -936.5"/><text x="250.259" y="-919.9" fill="#000" font-family="Times,serif" font-size="14" text-anchor="start">Private:</text><text x="250.259" y="-903.1" fill="#000" font-family="Times,serif" font-size="14" text-anchor="start">_owner: address</text><polyline fill="none" stroke="#000" points="242.259 -894.9 727.133 -894.9"/><text x="250.259" y="-878.3" fill="#000" font-family="Times,serif" font-size="14" text-anchor="start">Public:</text><text x="250.259" y="-861.5" fill="#000" font-family="Times,serif" font-size="14" text-anchor="start">&lt;&lt;event&gt;&gt; OwnershipTransferred(previousOwner: address, newOwner: address)</text><text x="250.259" y="-844.7" fill="#000" font-family="Times,serif" font-size="14" text-anchor="start">&lt;&lt;modifier&gt;&gt; onlyOwner()</text><text x="250.259" y="-827.9" fill="#000" font-family="Times,serif" font-size="14" text-anchor="start">constructor()</text><text x="250.259" y="-811.1" fill="#000" font-family="Times,serif" font-size="14" text-anchor="start">owner(): address</text><text x="250.259" y="-794.3" fill="#000" font-family="Times,serif" font-size="14" text-anchor="start">renounceOwnership()</text><text x="250.259" y="-777.5" fill="#000" font-family="Times,serif" font-size="14" text-anchor="start">transferOwnership(newOwner: address)</text></g><g id="edge19" class="edge"><title>14-&gt;0</title><path fill="none" stroke="#000" d="M484.6964,-978.1006C484.6964,-1042.4771 484.6964,-1124.3078 484.6964,-1186.3921"/><polygon fill="none" stroke="#000" points="474.197 -1186.425 484.696 -1216.425 495.197 -1186.425 474.197 -1186.425"/></g><g id="node16" class="node"><title>15</title><polygon fill="#f2f2f2" stroke="#000" points="1099.185 -380.7 1099.185 -471.9 1482.208 -471.9 1482.208 -380.7 1099.185 -380.7"/><text x="1290.696" y="-455.3" fill="#000" font-family="Times,serif" font-size="14" text-anchor="middle">TokenRecover</text><polyline fill="none" stroke="#000" points="1099.185 -447.1 1482.208 -447.1"/><polyline fill="none" stroke="#000" points="1099.185 -422.3 1482.208 -422.3"/><text x="1107.185" y="-405.7" fill="#000" font-family="Times,serif" font-size="14" text-anchor="start">Public:</text><text x="1107.185" y="-388.9" fill="#000" font-family="Times,serif" font-size="14" text-anchor="start">recoverERC20(tokenAddress: address, tokenAmount: uint256)</text></g><g id="edge21" class="edge"><title>15-&gt;1</title><path fill="none" stroke="#000" stroke-dasharray="5 2" d="M1274.2985,-472.0347C1235.4918,-588.5427 1149.6534,-902.7358 1265.6964,-1121.4 1271.0093,-1131.4113 1277.2732,-1140.9033 1284.2721,-1149.888"/><polygon fill="#000" stroke="#000" points="1281.573 -1152.117 1290.607 -1157.653 1286.998 -1147.692 1281.573 -1152.117"/></g><g id="edge20" class="edge"><title>15-&gt;14</title><path fill="none" stroke="#000" d="M1249.7954,-472.0668C1212.301,-510.6866 1153.1118,-563.7538 1089.6964,-590 943.5723,-650.4774 878.7739,-558.6308 735.6964,-626 677.0435,-653.6172 623.9675,-700.7681 581.89,-746.5676"/><polygon fill="none" stroke="#000" points="573.868 -739.788 561.837 -769.207 589.588 -753.712 573.868 -739.788"/></g><g id="node17" class="node"><title>16</title><polygon fill="#f2f2f2" stroke="#000" points="1163.459 -8.9 1163.459 -217.7 1565.934 -217.7 1565.934 -8.9 1163.459 -8.9"/><text x="1364.696" y="-201.1" fill="#000" font-family="Times,serif" font-size="14" text-anchor="middle">ServiceReceiver</text><polyline fill="none" stroke="#000" points="1163.459 -192.9 1565.934 -192.9"/><text x="1171.459" y="-176.3" fill="#000" font-family="Times,serif" font-size="14" text-anchor="start">Private:</text><text x="1171.459" y="-159.5" fill="#000" font-family="Times,serif" font-size="14" text-anchor="start">_prices: mapping(bytes32=&gt;uint256)</text><polyline fill="none" stroke="#000" points="1163.459 -151.3 1565.934 -151.3"/><text x="1171.459" y="-134.7" fill="#000" font-family="Times,serif" font-size="14" text-anchor="start">Private:</text><text x="1171.459" y="-117.9" fill="#000" font-family="Times,serif" font-size="14" text-anchor="start">_toBytes32(serviceName: string): bytes32</text><text x="1171.459" y="-101.1" fill="#000" font-family="Times,serif" font-size="14" text-anchor="start">Public:</text><text x="1171.459" y="-84.3" fill="#000" font-family="Times,serif" font-size="14" text-anchor="start">&lt;&lt;payable&gt;&gt; pay(serviceName: string)</text><text x="1171.459" y="-67.5" fill="#000" font-family="Times,serif" font-size="14" text-anchor="start">&lt;&lt;event&gt;&gt; Created(serviceName: string, serviceAddress: address)</text><text x="1171.459" y="-50.7" fill="#000" font-family="Times,serif" font-size="14" text-anchor="start">getPrice(serviceName: string): uint256</text><text x="1171.459" y="-33.9" fill="#000" font-family="Times,serif" font-size="14" text-anchor="start">setPrice(serviceName: string, amount: uint256)</text><text x="1171.459" y="-17.1" fill="#000" font-family="Times,serif" font-size="14" text-anchor="start">withdraw(amount: uint256)</text></g><g id="edge22" class="edge"><title>16-&gt;15</title><path fill="none" stroke="#000" d="M1339.9526,-217.9596C1329.6496,-261.5386 1317.9172,-311.1634 1308.4879,-351.0469"/><polygon fill="none" stroke="#000" points="1298.249 -348.716 1301.565 -380.327 1318.686 -353.548 1298.249 -348.716"/></g><g id="node18" class="node"><title>17</title><polygon fill="#f2f2f2" stroke="#000" points="338.656 -380.7 338.656 -471.9 654.736 -471.9 654.736 -380.7 338.656 -380.7"/><text x="496.696" y="-455.3" fill="#000" font-family="Times,serif" font-size="14" text-anchor="middle">ServicePayer</text><polyline fill="none" stroke="#000" points="338.656 -447.1 654.736 -447.1"/><polyline fill="none" stroke="#000" points="338.656 -422.3 654.736 -422.3"/><text x="346.656" y="-405.7" fill="#000" font-family="Times,serif" font-size="14" text-anchor="start">Public:</text><text x="346.656" y="-388.9" fill="#000" font-family="Times,serif" font-size="14" text-anchor="start">constructor(receiver: address, serviceName: string)</text></g><g id="node19" class="node"><title>18</title><polygon fill="#f2f2f2" stroke="#000" points="458.166 -.5 458.166 -226.1 1145.227 -226.1 1145.227 -.5 458.166 -.5"/><text x="801.696" y="-209.5" fill="#000" font-family="Times,serif" font-size="14" text-anchor="middle">PowerfulERC20</text><polyline fill="none" stroke="#000" points="458.166 -201.3 1145.227 -201.3"/><text x="466.166" y="-184.7" fill="#000" font-family="Times,serif" font-size="14" text-anchor="start">Private:</text><text x="466.166" y="-167.9" fill="#000" font-family="Times,serif" font-size="14" text-anchor="start">_mintingFinished: bool</text><polyline fill="none" stroke="#000" points="458.166 -159.7 1145.227 -159.7"/><text x="466.166" y="-143.1" fill="#000" font-family="Times,serif" font-size="14" text-anchor="start">Internal:</text><text x="466.166" y="-126.3" fill="#000" font-family="Times,serif" font-size="14" text-anchor="start">_beforeTokenTransfer(from: address, to: address, amount: uint256)</text><text x="466.166" y="-109.5" fill="#000" font-family="Times,serif" font-size="14" text-anchor="start">Public:</text><text x="466.166" y="-92.7" fill="#000" font-family="Times,serif" font-size="14" text-anchor="start">&lt;&lt;event&gt;&gt; MintFinished()</text><text x="466.166" y="-75.9" fill="#000" font-family="Times,serif" font-size="14" text-anchor="start">&lt;&lt;modifier&gt;&gt; canMint()</text><text x="466.166" y="-59.1" fill="#000" font-family="Times,serif" font-size="14" text-anchor="start">constructor(name: string, symbol: string, decimals: uint8, cap: uint256, initialBalance: uint256, feeReceiver: address)</text><text x="466.166" y="-42.3" fill="#000" font-family="Times,serif" font-size="14" text-anchor="start">mintingFinished(): bool</text><text x="466.166" y="-25.5" fill="#000" font-family="Times,serif" font-size="14" text-anchor="start">mint(to: address, value: uint256)</text><text x="466.166" y="-8.7" fill="#000" font-family="Times,serif" font-size="14" text-anchor="start">finishMinting()</text></g><g id="edge24" class="edge"><title>18-&gt;5</title><path fill="none" stroke="#000" d="M458.0886,-198.8552C413.2521,-216.5894 369.2226,-237.6666 329.6964,-262.6 297.0518,-283.1924 266.7289,-312.4126 241.8318,-340.4794"/><polygon fill="none" stroke="#000" points="233.649 -333.895 222.262 -363.57 249.669 -347.472 233.649 -333.895"/></g><g id="edge23" class="edge"><title>18-&gt;6</title><path fill="none" stroke="#000" d="M828.7731,-226.3002C835.2402,-253.2893 842.1565,-282.1534 848.6655,-309.3177"/><polygon fill="none" stroke="#000" points="838.46 -311.786 855.661 -338.514 858.882 -306.893 838.46 -311.786"/></g><g id="edge25" class="edge"><title>18-&gt;13</title><path fill="none" stroke="#000" d="M1145.693,-224.6557C1148.7037,-225.3188 1151.7053,-225.9672 1154.6964,-226.6 1292.278,-255.7086 1342.6337,-218.8905 1471.3275,-256.4043"/><polygon fill="none" stroke="#000" points="1468.265 -266.449 1500.038 -265.588 1474.663 -246.447 1468.265 -266.449"/></g><g id="edge26" class="edge"><title>18-&gt;15</title><path fill="none" stroke="#000" d="M1030.197,-226.1826C1050.635,-237.9422 1070.7459,-250.1607 1089.6964,-262.6 1134.2932,-291.8739 1180.6843,-329.1349 1217.6467,-360.7105"/><polygon fill="none" stroke="#000" points="1210.918 -368.774 1240.461 -380.498 1224.678 -352.909 1210.918 -368.774"/></g><g id="edge27" class="edge"><title>18-&gt;17</title><path fill="none" stroke="#000" d="M691.5844,-226.3002C648.3239,-270.6954 600.1198,-320.1638 562.4757,-358.7953"/><polygon fill="none" stroke="#000" points="554.789 -351.638 541.373 -380.452 569.83 -366.294 554.789 -351.638"/></g></g></svg>