<svg xmlns="http://www.w3.org/2000/svg" xmlns:xlink="http://www.w3.org/1999/xlink" width="1727pt" height="1157pt" viewBox="0 0 1727.11 1156.8"><g id="graph0" class="graph" transform="scale(1 1) rotate(0) translate(4 1152.8)"><title>UmlClassDiagram</title><polygon fill="#fff" stroke="transparent" points="-4 4 -4 -1152.8 1723.108 -1152.8 1723.108 4 -4 4"/><g id="node1" class="node"><title>0</title><polygon fill="#f2f2f2" stroke="#000" points="510.819 -964.7 510.819 -1089.5 728.963 -1089.5 728.963 -964.7 510.819 -964.7"/><text x="619.891" y="-1072.9" fill="#000" font-family="Times,serif" font-size="14" text-anchor="middle">&lt;&lt;Abstract&gt;&gt;</text><text x="619.891" y="-1056.1" fill="#000" font-family="Times,serif" font-size="14" text-anchor="middle">Context</text><polyline fill="none" stroke="#000" points="510.819 -1047.9 728.963 -1047.9"/><polyline fill="none" stroke="#000" points="510.819 -1023.1 728.963 -1023.1"/><text x="518.819" y="-1006.5" fill="#000" font-family="Times,serif" font-size="14" text-anchor="start">Internal:</text><text x="518.819" y="-989.7" fill="#000" font-family="Times,serif" font-size="14" text-anchor="start">_msgSender(): (payable: address)</text><text x="518.819" y="-972.9" fill="#000" font-family="Times,serif" font-size="14" text-anchor="start">_msgData(): bytes</text></g><g id="node2" class="node"><title>1</title><polygon fill="#f2f2f2" stroke="#000" points="54.591 -905.9 54.591 -1148.3 493.191 -1148.3 493.191 -905.9 54.591 -905.9"/><text x="273.891" y="-1131.7" fill="#000" font-family="Times,serif" font-size="14" text-anchor="middle">&lt;&lt;Interface&gt;&gt;</text><text x="273.891" y="-1114.9" fill="#000" font-family="Times,serif" font-size="14" text-anchor="middle">IERC20</text><polyline fill="none" stroke="#000" points="54.591 -1106.7 493.191 -1106.7"/><polyline fill="none" stroke="#000" points="54.591 -1081.9 493.191 -1081.9"/><text x="62.591" y="-1065.3" fill="#000" font-family="Times,serif" font-size="14" text-anchor="start">External:</text><text x="62.591" y="-1048.5" fill="#000" font-family="Times,serif" font-size="14" text-anchor="start">totalSupply(): uint256</text><text x="62.591" y="-1031.7" fill="#000" font-family="Times,serif" font-size="14" text-anchor="start">balanceOf(account: address): uint256</text><text x="62.591" y="-1014.9" fill="#000" font-family="Times,serif" font-size="14" text-anchor="start">transfer(recipient: address, amount: uint256): bool</text><text x="62.591" y="-998.1" fill="#000" font-family="Times,serif" font-size="14" text-anchor="start">allowance(owner: address, spender: address): uint256</text><text x="62.591" y="-981.3" fill="#000" font-family="Times,serif" font-size="14" text-anchor="start">approve(spender: address, amount: uint256): bool</text><text x="62.591" y="-964.5" fill="#000" font-family="Times,serif" font-size="14" text-anchor="start">transferFrom(sender: address, recipient: address, amount: uint256): bool</text><text x="62.591" y="-947.7" fill="#000" font-family="Times,serif" font-size="14" text-anchor="start">Public:</text><text x="62.591" y="-930.9" fill="#000" font-family="Times,serif" font-size="14" text-anchor="start">&lt;&lt;event&gt;&gt; Transfer(from: address, to: address, value: uint256)</text><text x="62.591" y="-914.1" fill="#000" font-family="Times,serif" font-size="14" text-anchor="start">&lt;&lt;event&gt;&gt; Approval(owner: address, spender: address, value: uint256)</text></g><g id="node3" class="node"><title>2</title><polygon fill="#f2f2f2" stroke="#000" points="747.195 -914.3 747.195 -1139.9 1104.588 -1139.9 1104.588 -914.3 747.195 -914.3"/><text x="925.891" y="-1123.3" fill="#000" font-family="Times,serif" font-size="14" text-anchor="middle">&lt;&lt;Library&gt;&gt;</text><text x="925.891" y="-1106.5" fill="#000" font-family="Times,serif" font-size="14" text-anchor="middle">SafeMath</text><polyline fill="none" stroke="#000" points="747.195 -1098.3 1104.588 -1098.3"/><polyline fill="none" stroke="#000" points="747.195 -1073.5 1104.588 -1073.5"/><text x="755.195" y="-1056.9" fill="#000" font-family="Times,serif" font-size="14" text-anchor="start">Internal:</text><text x="755.195" y="-1040.1" fill="#000" font-family="Times,serif" font-size="14" text-anchor="start">add(a: uint256, b: uint256): uint256</text><text x="755.195" y="-1023.3" fill="#000" font-family="Times,serif" font-size="14" text-anchor="start">sub(a: uint256, b: uint256): uint256</text><text x="755.195" y="-1006.5" fill="#000" font-family="Times,serif" font-size="14" text-anchor="start">sub(a: uint256, b: uint256, errorMessage: string): uint256</text><text x="755.195" y="-989.7" fill="#000" font-family="Times,serif" font-size="14" text-anchor="start">mul(a: uint256, b: uint256): uint256</text><text x="755.195" y="-972.9" fill="#000" font-family="Times,serif" font-size="14" text-anchor="start">div(a: uint256, b: uint256): uint256</text><text x="755.195" y="-956.1" fill="#000" font-family="Times,serif" font-size="14" text-anchor="start">div(a: uint256, b: uint256, errorMessage: string): uint256</text><text x="755.195" y="-939.3" fill="#000" font-family="Times,serif" font-size="14" text-anchor="start">mod(a: uint256, b: uint256): uint256</text><text x="755.195" y="-922.5" fill="#000" font-family="Times,serif" font-size="14" text-anchor="start">mod(a: uint256, b: uint256, errorMessage: string): uint256</text></g><g id="node4" class="node"><title>3</title><polygon fill="#f2f2f2" stroke="#000" points="1122.674 -914.3 1122.674 -1139.9 1719.108 -1139.9 1719.108 -914.3 1122.674 -914.3"/><text x="1420.891" y="-1123.3" fill="#000" font-family="Times,serif" font-size="14" text-anchor="middle">&lt;&lt;Library&gt;&gt;</text><text x="1420.891" y="-1106.5" fill="#000" font-family="Times,serif" font-size="14" text-anchor="middle">Address</text><polyline fill="none" stroke="#000" points="1122.674 -1098.3 1719.108 -1098.3"/><polyline fill="none" stroke="#000" points="1122.674 -1073.5 1719.108 -1073.5"/><text x="1130.674" y="-1056.9" fill="#000" font-family="Times,serif" font-size="14" text-anchor="start">Private:</text><text x="1130.674" y="-1040.1" fill="#000" font-family="Times,serif" font-size="14" text-anchor="start">_functionCallWithValue(target: address, data: bytes, weiValue: uint256, errorMessage: string): bytes</text><text x="1130.674" y="-1023.3" fill="#000" font-family="Times,serif" font-size="14" text-anchor="start">Internal:</text><text x="1130.674" y="-1006.5" fill="#000" font-family="Times,serif" font-size="14" text-anchor="start">isContract(account: address): bool</text><text x="1130.674" y="-989.7" fill="#000" font-family="Times,serif" font-size="14" text-anchor="start">sendValue(recipient: address, amount: uint256)</text><text x="1130.674" y="-972.9" fill="#000" font-family="Times,serif" font-size="14" text-anchor="start">functionCall(target: address, data: bytes): bytes</text><text x="1130.674" y="-956.1" fill="#000" font-family="Times,serif" font-size="14" text-anchor="start">functionCall(target: address, data: bytes, errorMessage: string): bytes</text><text x="1130.674" y="-939.3" fill="#000" font-family="Times,serif" font-size="14" text-anchor="start">functionCallWithValue(target: address, data: bytes, value: uint256): bytes</text><text x="1130.674" y="-922.5" fill="#000" font-family="Times,serif" font-size="14" text-anchor="start">functionCallWithValue(target: address, data: bytes, value: uint256, errorMessage: string): bytes</text></g><g id="node5" class="node"><title>4</title><polygon fill="#f2f2f2" stroke="#000" points="555.341 -374.5 555.341 -868.9 990.441 -868.9 990.441 -374.5 555.341 -374.5"/><text x="772.891" y="-852.3" fill="#000" font-family="Times,serif" font-size="14" text-anchor="middle">ERC20</text><polyline fill="none" stroke="#000" points="555.341 -844.1 990.441 -844.1"/><text x="563.341" y="-827.5" fill="#000" font-family="Times,serif" font-size="14" text-anchor="start">Private:</text><text x="563.341" y="-810.7" fill="#000" font-family="Times,serif" font-size="14" text-anchor="start">_balances: mapping(address=&gt;uint256)</text><text x="563.341" y="-793.9" fill="#000" font-family="Times,serif" font-size="14" text-anchor="start">_allowances: mapping(address=&gt;mapping(address=&gt;uint256))</text><text x="563.341" y="-777.1" fill="#000" font-family="Times,serif" font-size="14" text-anchor="start">_totalSupply: uint256</text><text x="563.341" y="-760.3" fill="#000" font-family="Times,serif" font-size="14" text-anchor="start">_name: string</text><text x="563.341" y="-743.5" fill="#000" font-family="Times,serif" font-size="14" text-anchor="start">_symbol: string</text><text x="563.341" y="-726.7" fill="#000" font-family="Times,serif" font-size="14" text-anchor="start">_decimals: uint8</text><polyline fill="none" stroke="#000" points="555.341 -718.5 990.441 -718.5"/><text x="563.341" y="-701.9" fill="#000" font-family="Times,serif" font-size="14" text-anchor="start">Internal:</text><text x="563.341" y="-685.1" fill="#000" font-family="Times,serif" font-size="14" text-anchor="start">_transfer(sender: address, recipient: address, amount: uint256)</text><text x="563.341" y="-668.3" fill="#000" font-family="Times,serif" font-size="14" text-anchor="start">_mint(account: address, amount: uint256)</text><text x="563.341" y="-651.5" fill="#000" font-family="Times,serif" font-size="14" text-anchor="start">_burn(account: address, amount: uint256)</text><text x="563.341" y="-634.7" fill="#000" font-family="Times,serif" font-size="14" text-anchor="start">_approve(owner: address, spender: address, amount: uint256)</text><text x="563.341" y="-617.9" fill="#000" font-family="Times,serif" font-size="14" text-anchor="start">_setupDecimals(decimals_: uint8)</text><text x="563.341" y="-601.1" fill="#000" font-family="Times,serif" font-size="14" text-anchor="start">_beforeTokenTransfer(from: address, to: address, amount: uint256)</text><text x="563.341" y="-584.3" fill="#000" font-family="Times,serif" font-size="14" text-anchor="start">Public:</text><text x="563.341" y="-567.5" fill="#000" font-family="Times,serif" font-size="14" text-anchor="start">constructor(name_: string, symbol_: string)</text><text x="563.341" y="-550.7" fill="#000" font-family="Times,serif" font-size="14" text-anchor="start">name(): string</text><text x="563.341" y="-533.9" fill="#000" font-family="Times,serif" font-size="14" text-anchor="start">symbol(): string</text><text x="563.341" y="-517.1" fill="#000" font-family="Times,serif" font-size="14" text-anchor="start">decimals(): uint8</text><text x="563.341" y="-500.3" fill="#000" font-family="Times,serif" font-size="14" text-anchor="start">totalSupply(): uint256</text><text x="563.341" y="-483.5" fill="#000" font-family="Times,serif" font-size="14" text-anchor="start">balanceOf(account: address): uint256</text><text x="563.341" y="-466.7" fill="#000" font-family="Times,serif" font-size="14" text-anchor="start">transfer(recipient: address, amount: uint256): bool</text><text x="563.341" y="-449.9" fill="#000" font-family="Times,serif" font-size="14" text-anchor="start">allowance(owner: address, spender: address): uint256</text><text x="563.341" y="-433.1" fill="#000" font-family="Times,serif" font-size="14" text-anchor="start">approve(spender: address, amount: uint256): bool</text><text x="563.341" y="-416.3" fill="#000" font-family="Times,serif" font-size="14" text-anchor="start">transferFrom(sender: address, recipient: address, amount: uint256): bool</text><text x="563.341" y="-399.5" fill="#000" font-family="Times,serif" font-size="14" text-anchor="start">increaseAllowance(spender: address, addedValue: uint256): bool</text><text x="563.341" y="-382.7" fill="#000" font-family="Times,serif" font-size="14" text-anchor="start">decreaseAllowance(spender: address, subtractedValue: uint256): bool</text></g><g id="edge1" class="edge"><title>4-&gt;0</title><path fill="none" stroke="#000" d="M679.5927,-868.9105C670.5822,-892.7853 661.8988,-915.7935 654.0765,-936.5199"/><polygon fill="none" stroke="#000" points="644.241 -932.844 643.472 -964.62 663.888 -940.26 644.241 -932.844"/></g><g id="edge2" class="edge"><title>4-&gt;1</title><path fill="none" stroke="#000" stroke-dasharray="5 2" d="M555.0826,-861.8762C552.0241,-864.4236 548.9596,-866.9328 545.8912,-869.4 537.0052,-876.5447 527.7583,-883.5734 518.2687,-890.4574"/><polygon fill="none" stroke="#000" points="512.049 -881.994 493.467 -907.781 524.074 -899.21 512.049 -881.994"/></g><g id="edge3" class="edge"><title>4-&gt;2</title><path fill="none" stroke="#000" stroke-dasharray="5 2" d="M866.1897,-868.9105C870.7652,-881.0343 875.2565,-892.9346 879.5934,-904.4261"/><polygon fill="#000" stroke="#000" points="876.393 -905.859 883.199 -913.979 882.942 -903.387 876.393 -905.859"/></g><g id="edge4" class="edge"><title>4-&gt;3</title><path fill="none" stroke="#000" stroke-dasharray="5 2" d="M990.7137,-863.3696C993.7573,-865.4292 996.8168,-867.4406 999.8912,-869.4 1044.6974,-897.9571 1063.8291,-887.5984 1113.8912,-905.4 1118.8289,-907.1558 1123.8055,-908.9414 1128.8117,-910.7524"/><polygon fill="#000" stroke="#000" points="1127.879 -914.138 1138.473 -914.265 1130.271 -907.559 1127.879 -914.138"/></g><g id="node6" class="node"><title>5</title><polygon fill="#f2f2f2" stroke="#000" points="52.454 -517.3 52.454 -726.1 537.328 -726.1 537.328 -517.3 52.454 -517.3"/><text x="294.891" y="-709.5" fill="#000" font-family="Times,serif" font-size="14" text-anchor="middle">&lt;&lt;Abstract&gt;&gt;</text><text x="294.891" y="-692.7" fill="#000" font-family="Times,serif" font-size="14" text-anchor="middle">Ownable</text><polyline fill="none" stroke="#000" points="52.454 -684.5 537.328 -684.5"/><text x="60.454" y="-667.9" fill="#000" font-family="Times,serif" font-size="14" text-anchor="start">Private:</text><text x="60.454" y="-651.1" fill="#000" font-family="Times,serif" font-size="14" text-anchor="start">_owner: address</text><polyline fill="none" stroke="#000" points="52.454 -642.9 537.328 -642.9"/><text x="60.454" y="-626.3" fill="#000" font-family="Times,serif" font-size="14" text-anchor="start">Public:</text><text x="60.454" y="-609.5" fill="#000" font-family="Times,serif" font-size="14" text-anchor="start">&lt;&lt;event&gt;&gt; OwnershipTransferred(previousOwner: address, newOwner: address)</text><text x="60.454" y="-592.7" fill="#000" font-family="Times,serif" font-size="14" text-anchor="start">&lt;&lt;modifier&gt;&gt; onlyOwner()</text><text x="60.454" y="-575.9" fill="#000" font-family="Times,serif" font-size="14" text-anchor="start">constructor()</text><text x="60.454" y="-559.1" fill="#000" font-family="Times,serif" font-size="14" text-anchor="start">owner(): address</text><text x="60.454" y="-542.3" fill="#000" font-family="Times,serif" font-size="14" text-anchor="start">renounceOwnership()</text><text x="60.454" y="-525.5" fill="#000" font-family="Times,serif" font-size="14" text-anchor="start">transferOwnership(newOwner: address)</text></g><g id="edge5" class="edge"><title>5-&gt;0</title><path fill="none" stroke="#000" d="M378.5867,-726.1006C431.9674,-792.6868 500.3178,-877.946 550.6374,-940.7139"/><polygon fill="none" stroke="#000" points="542.689 -947.586 569.646 -964.425 559.073 -934.45 542.689 -947.586"/></g><g id="node7" class="node"><title>6</title><polygon fill="#f2f2f2" stroke="#000" points="103.38 -246.3 103.38 -337.5 486.402 -337.5 486.402 -246.3 103.38 -246.3"/><text x="294.891" y="-320.9" fill="#000" font-family="Times,serif" font-size="14" text-anchor="middle">TokenRecover</text><polyline fill="none" stroke="#000" points="103.38 -312.7 486.402 -312.7"/><polyline fill="none" stroke="#000" points="103.38 -287.9 486.402 -287.9"/><text x="111.38" y="-271.3" fill="#000" font-family="Times,serif" font-size="14" text-anchor="start">Public:</text><text x="111.38" y="-254.5" fill="#000" font-family="Times,serif" font-size="14" text-anchor="start">recoverERC20(tokenAddress: address, tokenAmount: uint256)</text></g><g id="edge7" class="edge"><title>6-&gt;1</title><path fill="none" stroke="#000" stroke-dasharray="5 2" d="M106.9933,-337.5737C77.5057,-348.3827 53.546,-360.6838 43.8912,-374 -20.73,-463.1273 -7.4217,-772.0011 43.8912,-869.4 49.1709,-879.4217 55.4067,-888.9288 62.3797,-897.9317"/><polygon fill="#000" stroke="#000" points="59.674 -900.152 68.692 -905.714 65.111 -895.742 59.674 -900.152"/></g><g id="edge6" class="edge"><title>6-&gt;5</title><path fill="none" stroke="#000" d="M294.8912,-337.7573C294.8912,-376.4636 294.8912,-433.9068 294.8912,-487.0193"/><polygon fill="none" stroke="#000" points="284.391 -487.193 294.891 -517.193 305.391 -487.193 284.391 -487.193"/></g><g id="node8" class="node"><title>7</title><polygon fill="#f2f2f2" stroke="#000" points="93.654 -.5 93.654 -209.3 496.128 -209.3 496.128 -.5 93.654 -.5"/><text x="294.891" y="-192.7" fill="#000" font-family="Times,serif" font-size="14" text-anchor="middle">ServiceReceiver</text><polyline fill="none" stroke="#000" points="93.654 -184.5 496.128 -184.5"/><text x="101.654" y="-167.9" fill="#000" font-family="Times,serif" font-size="14" text-anchor="start">Private:</text><text x="101.654" y="-151.1" fill="#000" font-family="Times,serif" font-size="14" text-anchor="start">_prices: mapping(bytes32=&gt;uint256)</text><polyline fill="none" stroke="#000" points="93.654 -142.9 496.128 -142.9"/><text x="101.654" y="-126.3" fill="#000" font-family="Times,serif" font-size="14" text-anchor="start">Private:</text><text x="101.654" y="-109.5" fill="#000" font-family="Times,serif" font-size="14" text-anchor="start">_toBytes32(serviceName: string): bytes32</text><text x="101.654" y="-92.7" fill="#000" font-family="Times,serif" font-size="14" text-anchor="start">Public:</text><text x="101.654" y="-75.9" fill="#000" font-family="Times,serif" font-size="14" text-anchor="start">&lt;&lt;payable&gt;&gt; pay(serviceName: string)</text><text x="101.654" y="-59.1" fill="#000" font-family="Times,serif" font-size="14" text-anchor="start">&lt;&lt;event&gt;&gt; Created(serviceName: string, serviceAddress: address)</text><text x="101.654" y="-42.3" fill="#000" font-family="Times,serif" font-size="14" text-anchor="start">getPrice(serviceName: string): uint256</text><text x="101.654" y="-25.5" fill="#000" font-family="Times,serif" font-size="14" text-anchor="start">setPrice(serviceName: string, amount: uint256)</text><text x="101.654" y="-8.7" fill="#000" font-family="Times,serif" font-size="14" text-anchor="start">withdraw(amount: uint256)</text></g><g id="edge8" class="edge"><title>7-&gt;6</title><path fill="none" stroke="#000" d="M294.8912,-209.3347C294.8912,-211.5492 294.8912,-213.7553 294.8912,-215.948"/><polygon fill="none" stroke="#000" points="284.391 -216.147 294.891 -246.147 305.391 -216.147 284.391 -216.147"/></g><g id="node9" class="node"><title>8</title><polygon fill="#f2f2f2" stroke="#000" points="1008.851 -576.1 1008.851 -667.3 1324.931 -667.3 1324.931 -576.1 1008.851 -576.1"/><text x="1166.891" y="-650.7" fill="#000" font-family="Times,serif" font-size="14" text-anchor="middle">ServicePayer</text><polyline fill="none" stroke="#000" points="1008.851 -642.5 1324.931 -642.5"/><polyline fill="none" stroke="#000" points="1008.851 -617.7 1324.931 -617.7"/><text x="1016.851" y="-601.1" fill="#000" font-family="Times,serif" font-size="14" text-anchor="start">Public:</text><text x="1016.851" y="-584.3" fill="#000" font-family="Times,serif" font-size="14" text-anchor="start">constructor(receiver: address, serviceName: string)</text></g><g id="node10" class="node"><title>9</title><polygon fill="#f2f2f2" stroke="#000" points="1343.124 -550.9 1343.124 -692.5 1500.658 -692.5 1500.658 -550.9 1343.124 -550.9"/><text x="1421.891" y="-675.9" fill="#000" font-family="Times,serif" font-size="14" text-anchor="middle">GeneratorCopyright</text><polyline fill="none" stroke="#000" points="1343.124 -667.7 1500.658 -667.7"/><text x="1351.124" y="-651.1" fill="#000" font-family="Times,serif" font-size="14" text-anchor="start">Private:</text><text x="1351.124" y="-634.3" fill="#000" font-family="Times,serif" font-size="14" text-anchor="start">_GENERATOR: string</text><text x="1351.124" y="-617.5" fill="#000" font-family="Times,serif" font-size="14" text-anchor="start">_VERSION: string</text><polyline fill="none" stroke="#000" points="1343.124 -609.3 1500.658 -609.3"/><text x="1351.124" y="-592.7" fill="#000" font-family="Times,serif" font-size="14" text-anchor="start">Public:</text><text x="1351.124" y="-575.9" fill="#000" font-family="Times,serif" font-size="14" text-anchor="start">generator(): string</text><text x="1351.124" y="-559.1" fill="#000" font-family="Times,serif" font-size="14" text-anchor="start">version(): string</text></g><g id="node11" class="node"><title>10</title><polygon fill="#f2f2f2" stroke="#000" points="908.127 -246.3 908.127 -337.5 1425.655 -337.5 1425.655 -246.3 908.127 -246.3"/><text x="1166.891" y="-320.9" fill="#000" font-family="Times,serif" font-size="14" text-anchor="middle">SimpleERC20</text><polyline fill="none" stroke="#000" points="908.127 -312.7 1425.655 -312.7"/><polyline fill="none" stroke="#000" points="908.127 -287.9 1425.655 -287.9"/><text x="916.127" y="-271.3" fill="#000" font-family="Times,serif" font-size="14" text-anchor="start">Public:</text><text x="916.127" y="-254.5" fill="#000" font-family="Times,serif" font-size="14" text-anchor="start">constructor(name: string, symbol: string, initialBalance: uint256, feeReceiver: address)</text></g><g id="edge9" class="edge"><title>10-&gt;4</title><path fill="none" stroke="#000" d="M1058.746,-337.6978C1044.9055,-344.9271 1030.9918,-352.8806 1014.8958,-363.7285"/><polygon fill="none" stroke="#000" points="1008.744 -355.219 990.465 -381.221 1020.97 -372.294 1008.744 -355.219"/></g><g id="edge10" class="edge"><title>10-&gt;8</title><path fill="none" stroke="#000" d="M1166.8912,-337.7573C1166.8912,-391.584 1166.8912,-481.6458 1166.8912,-545.9058"/><polygon fill="none" stroke="#000" points="1156.391 -545.967 1166.891 -575.967 1177.391 -545.967 1156.391 -545.967"/></g><g id="edge11" class="edge"><title>10-&gt;9</title><path fill="none" stroke="#000" d="M1288.8467,-337.6401C1305.5093,-347.7319 1321.2136,-359.7658 1333.8912,-374 1370.4638,-415.0633 1392.1038,-472.3455 1404.7659,-521.4822"/><polygon fill="none" stroke="#000" points="1394.557 -523.941 1411.543 -550.806 1415.018 -519.212 1394.557 -523.941"/></g></g></svg>