<svg xmlns="http://www.w3.org/2000/svg" xmlns:xlink="http://www.w3.org/1999/xlink" width="1727pt" height="1157pt" viewBox="0 0 1727.11 1156.8"><g id="graph0" class="graph" transform="scale(1 1) rotate(0) translate(4 1152.8)"><title>UmlClassDiagram</title><polygon fill="#fff" stroke="transparent" points="-4 4 -4 -1152.8 1723.108 -1152.8 1723.108 4 -4 4"/><g id="node1" class="node"><title>0</title><polygon fill="#f2f2f2" stroke="#000" points="990.145 -964.7 990.145 -1089.5 1208.29 -1089.5 1208.29 -964.7 990.145 -964.7"/><text x="1099.217" y="-1072.9" fill="#000" font-family="Times,serif" font-size="14" text-anchor="middle">&lt;&lt;Abstract&gt;&gt;</text><text x="1099.217" y="-1056.1" fill="#000" font-family="Times,serif" font-size="14" text-anchor="middle">Context</text><polyline fill="none" stroke="#000" points="990.145 -1047.9 1208.29 -1047.9"/><polyline fill="none" stroke="#000" points="990.145 -1023.1 1208.29 -1023.1"/><text x="998.145" y="-1006.5" fill="#000" font-family="Times,serif" font-size="14" text-anchor="start">Internal:</text><text x="998.145" y="-989.7" fill="#000" font-family="Times,serif" font-size="14" text-anchor="start">_msgSender(): (payable: address)</text><text x="998.145" y="-972.9" fill="#000" font-family="Times,serif" font-size="14" text-anchor="start">_msgData(): bytes</text></g><g id="node2" class="node"><title>1</title><polygon fill="#f2f2f2" stroke="#000" points="1225.917 -905.9 1225.917 -1148.3 1664.517 -1148.3 1664.517 -905.9 1225.917 -905.9"/><text x="1445.217" y="-1131.7" fill="#000" font-family="Times,serif" font-size="14" text-anchor="middle">&lt;&lt;Interface&gt;&gt;</text><text x="1445.217" y="-1114.9" fill="#000" font-family="Times,serif" font-size="14" text-anchor="middle">IERC20</text><polyline fill="none" stroke="#000" points="1225.917 -1106.7 1664.517 -1106.7"/><polyline fill="none" stroke="#000" points="1225.917 -1081.9 1664.517 -1081.9"/><text x="1233.917" y="-1065.3" fill="#000" font-family="Times,serif" font-size="14" text-anchor="start">External:</text><text x="1233.917" y="-1048.5" fill="#000" font-family="Times,serif" font-size="14" text-anchor="start">totalSupply(): uint256</text><text x="1233.917" y="-1031.7" fill="#000" font-family="Times,serif" font-size="14" text-anchor="start">balanceOf(account: address): uint256</text><text x="1233.917" y="-1014.9" fill="#000" font-family="Times,serif" font-size="14" text-anchor="start">transfer(recipient: address, amount: uint256): bool</text><text x="1233.917" y="-998.1" fill="#000" font-family="Times,serif" font-size="14" text-anchor="start">allowance(owner: address, spender: address): uint256</text><text x="1233.917" y="-981.3" fill="#000" font-family="Times,serif" font-size="14" text-anchor="start">approve(spender: address, amount: uint256): bool</text><text x="1233.917" y="-964.5" fill="#000" font-family="Times,serif" font-size="14" text-anchor="start">transferFrom(sender: address, recipient: address, amount: uint256): bool</text><text x="1233.917" y="-947.7" fill="#000" font-family="Times,serif" font-size="14" text-anchor="start">Public:</text><text x="1233.917" y="-930.9" fill="#000" font-family="Times,serif" font-size="14" text-anchor="start">&lt;&lt;event&gt;&gt; Transfer(from: address, to: address, value: uint256)</text><text x="1233.917" y="-914.1" fill="#000" font-family="Times,serif" font-size="14" text-anchor="start">&lt;&lt;event&gt;&gt; Approval(owner: address, spender: address, value: uint256)</text></g><g id="node3" class="node"><title>2</title><polygon fill="#f2f2f2" stroke="#000" points="614.521 -914.3 614.521 -1139.9 971.914 -1139.9 971.914 -914.3 614.521 -914.3"/><text x="793.217" y="-1123.3" fill="#000" font-family="Times,serif" font-size="14" text-anchor="middle">&lt;&lt;Library&gt;&gt;</text><text x="793.217" y="-1106.5" fill="#000" font-family="Times,serif" font-size="14" text-anchor="middle">SafeMath</text><polyline fill="none" stroke="#000" points="614.521 -1098.3 971.914 -1098.3"/><polyline fill="none" stroke="#000" points="614.521 -1073.5 971.914 -1073.5"/><text x="622.521" y="-1056.9" fill="#000" font-family="Times,serif" font-size="14" text-anchor="start">Internal:</text><text x="622.521" y="-1040.1" fill="#000" font-family="Times,serif" font-size="14" text-anchor="start">add(a: uint256, b: uint256): uint256</text><text x="622.521" y="-1023.3" fill="#000" font-family="Times,serif" font-size="14" text-anchor="start">sub(a: uint256, b: uint256): uint256</text><text x="622.521" y="-1006.5" fill="#000" font-family="Times,serif" font-size="14" text-anchor="start">sub(a: uint256, b: uint256, errorMessage: string): uint256</text><text x="622.521" y="-989.7" fill="#000" font-family="Times,serif" font-size="14" text-anchor="start">mul(a: uint256, b: uint256): uint256</text><text x="622.521" y="-972.9" fill="#000" font-family="Times,serif" font-size="14" text-anchor="start">div(a: uint256, b: uint256): uint256</text><text x="622.521" y="-956.1" fill="#000" font-family="Times,serif" font-size="14" text-anchor="start">div(a: uint256, b: uint256, errorMessage: string): uint256</text><text x="622.521" y="-939.3" fill="#000" font-family="Times,serif" font-size="14" text-anchor="start">mod(a: uint256, b: uint256): uint256</text><text x="622.521" y="-922.5" fill="#000" font-family="Times,serif" font-size="14" text-anchor="start">mod(a: uint256, b: uint256, errorMessage: string): uint256</text></g><g id="node4" class="node"><title>3</title><polygon fill="#f2f2f2" stroke="#000" points="0 -914.3 0 -1139.9 596.434 -1139.9 596.434 -914.3 0 -914.3"/><text x="298.217" y="-1123.3" fill="#000" font-family="Times,serif" font-size="14" text-anchor="middle">&lt;&lt;Library&gt;&gt;</text><text x="298.217" y="-1106.5" fill="#000" font-family="Times,serif" font-size="14" text-anchor="middle">Address</text><polyline fill="none" stroke="#000" points="0 -1098.3 596.434 -1098.3"/><polyline fill="none" stroke="#000" points="0 -1073.5 596.434 -1073.5"/><text x="8" y="-1056.9" fill="#000" font-family="Times,serif" font-size="14" text-anchor="start">Private:</text><text x="8" y="-1040.1" fill="#000" font-family="Times,serif" font-size="14" text-anchor="start">_functionCallWithValue(target: address, data: bytes, weiValue: uint256, errorMessage: string): bytes</text><text x="8" y="-1023.3" fill="#000" font-family="Times,serif" font-size="14" text-anchor="start">Internal:</text><text x="8" y="-1006.5" fill="#000" font-family="Times,serif" font-size="14" text-anchor="start">isContract(account: address): bool</text><text x="8" y="-989.7" fill="#000" font-family="Times,serif" font-size="14" text-anchor="start">sendValue(recipient: address, amount: uint256)</text><text x="8" y="-972.9" fill="#000" font-family="Times,serif" font-size="14" text-anchor="start">functionCall(target: address, data: bytes): bytes</text><text x="8" y="-956.1" fill="#000" font-family="Times,serif" font-size="14" text-anchor="start">functionCall(target: address, data: bytes, errorMessage: string): bytes</text><text x="8" y="-939.3" fill="#000" font-family="Times,serif" font-size="14" text-anchor="start">functionCallWithValue(target: address, data: bytes, value: uint256): bytes</text><text x="8" y="-922.5" fill="#000" font-family="Times,serif" font-size="14" text-anchor="start">functionCallWithValue(target: address, data: bytes, value: uint256, errorMessage: string): bytes</text></g><g id="node5" class="node"><title>4</title><polygon fill="#f2f2f2" stroke="#000" points="728.667 -374.5 728.667 -868.9 1163.767 -868.9 1163.767 -374.5 728.667 -374.5"/><text x="946.217" y="-852.3" fill="#000" font-family="Times,serif" font-size="14" text-anchor="middle">ERC20</text><polyline fill="none" stroke="#000" points="728.667 -844.1 1163.767 -844.1"/><text x="736.667" y="-827.5" fill="#000" font-family="Times,serif" font-size="14" text-anchor="start">Private:</text><text x="736.667" y="-810.7" fill="#000" font-family="Times,serif" font-size="14" text-anchor="start">_balances: mapping(address=&gt;uint256)</text><text x="736.667" y="-793.9" fill="#000" font-family="Times,serif" font-size="14" text-anchor="start">_allowances: mapping(address=&gt;mapping(address=&gt;uint256))</text><text x="736.667" y="-777.1" fill="#000" font-family="Times,serif" font-size="14" text-anchor="start">_totalSupply: uint256</text><text x="736.667" y="-760.3" fill="#000" font-family="Times,serif" font-size="14" text-anchor="start">_name: string</text><text x="736.667" y="-743.5" fill="#000" font-family="Times,serif" font-size="14" text-anchor="start">_symbol: string</text><text x="736.667" y="-726.7" fill="#000" font-family="Times,serif" font-size="14" text-anchor="start">_decimals: uint8</text><polyline fill="none" stroke="#000" points="728.667 -718.5 1163.767 -718.5"/><text x="736.667" y="-701.9" fill="#000" font-family="Times,serif" font-size="14" text-anchor="start">Internal:</text><text x="736.667" y="-685.1" fill="#000" font-family="Times,serif" font-size="14" text-anchor="start">_transfer(sender: address, recipient: address, amount: uint256)</text><text x="736.667" y="-668.3" fill="#000" font-family="Times,serif" font-size="14" text-anchor="start">_mint(account: address, amount: uint256)</text><text x="736.667" y="-651.5" fill="#000" font-family="Times,serif" font-size="14" text-anchor="start">_burn(account: address, amount: uint256)</text><text x="736.667" y="-634.7" fill="#000" font-family="Times,serif" font-size="14" text-anchor="start">_approve(owner: address, spender: address, amount: uint256)</text><text x="736.667" y="-617.9" fill="#000" font-family="Times,serif" font-size="14" text-anchor="start">_setupDecimals(decimals_: uint8)</text><text x="736.667" y="-601.1" fill="#000" font-family="Times,serif" font-size="14" text-anchor="start">_beforeTokenTransfer(from: address, to: address, amount: uint256)</text><text x="736.667" y="-584.3" fill="#000" font-family="Times,serif" font-size="14" text-anchor="start">Public:</text><text x="736.667" y="-567.5" fill="#000" font-family="Times,serif" font-size="14" text-anchor="start">constructor(name_: string, symbol_: string)</text><text x="736.667" y="-550.7" fill="#000" font-family="Times,serif" font-size="14" text-anchor="start">name(): string</text><text x="736.667" y="-533.9" fill="#000" font-family="Times,serif" font-size="14" text-anchor="start">symbol(): string</text><text x="736.667" y="-517.1" fill="#000" font-family="Times,serif" font-size="14" text-anchor="start">decimals(): uint8</text><text x="736.667" y="-500.3" fill="#000" font-family="Times,serif" font-size="14" text-anchor="start">totalSupply(): uint256</text><text x="736.667" y="-483.5" fill="#000" font-family="Times,serif" font-size="14" text-anchor="start">balanceOf(account: address): uint256</text><text x="736.667" y="-466.7" fill="#000" font-family="Times,serif" font-size="14" text-anchor="start">transfer(recipient: address, amount: uint256): bool</text><text x="736.667" y="-449.9" fill="#000" font-family="Times,serif" font-size="14" text-anchor="start">allowance(owner: address, spender: address): uint256</text><text x="736.667" y="-433.1" fill="#000" font-family="Times,serif" font-size="14" text-anchor="start">approve(spender: address, amount: uint256): bool</text><text x="736.667" y="-416.3" fill="#000" font-family="Times,serif" font-size="14" text-anchor="start">transferFrom(sender: address, recipient: address, amount: uint256): bool</text><text x="736.667" y="-399.5" fill="#000" font-family="Times,serif" font-size="14" text-anchor="start">increaseAllowance(spender: address, addedValue: uint256): bool</text><text x="736.667" y="-382.7" fill="#000" font-family="Times,serif" font-size="14" text-anchor="start">decreaseAllowance(spender: address, subtractedValue: uint256): bool</text></g><g id="edge1" class="edge"><title>4-&gt;0</title><path fill="none" stroke="#000" d="M1039.5157,-868.9105C1048.5262,-892.7853 1057.2096,-915.7935 1065.0318,-936.5199"/><polygon fill="none" stroke="#000" points="1055.22 -940.26 1075.637 -964.62 1074.868 -932.844 1055.22 -940.26"/></g><g id="edge2" class="edge"><title>4-&gt;1</title><path fill="none" stroke="#000" stroke-dasharray="5 2" d="M1164.0257,-861.8762C1167.0843,-864.4236 1170.1487,-866.9328 1173.2172,-869.4 1182.1032,-876.5447 1191.35,-883.5734 1200.8397,-890.4574"/><polygon fill="none" stroke="#000" points="1195.034 -899.21 1225.641 -907.781 1207.06 -881.994 1195.034 -899.21"/></g><g id="edge3" class="edge"><title>4-&gt;2</title><path fill="none" stroke="#000" stroke-dasharray="5 2" d="M852.9187,-868.9105C848.3431,-881.0343 843.8519,-892.9346 839.5149,-904.4261"/><polygon fill="#000" stroke="#000" points="836.166 -903.387 835.91 -913.979 842.715 -905.859 836.166 -903.387"/></g><g id="edge4" class="edge"><title>4-&gt;3</title><path fill="none" stroke="#000" stroke-dasharray="5 2" d="M728.3946,-863.3696C725.351,-865.4292 722.2915,-867.4406 719.2172,-869.4 674.4109,-897.9571 655.2793,-887.5984 605.2172,-905.4 600.2794,-907.1558 595.3029,-908.9414 590.2966,-910.7524"/><polygon fill="#000" stroke="#000" points="588.837 -907.559 580.635 -914.265 591.229 -914.138 588.837 -907.559"/></g><g id="node6" class="node"><title>5</title><polygon fill="#f2f2f2" stroke="#000" points="1181.78 -517.3 1181.78 -726.1 1666.654 -726.1 1666.654 -517.3 1181.78 -517.3"/><text x="1424.217" y="-709.5" fill="#000" font-family="Times,serif" font-size="14" text-anchor="middle">&lt;&lt;Abstract&gt;&gt;</text><text x="1424.217" y="-692.7" fill="#000" font-family="Times,serif" font-size="14" text-anchor="middle">Ownable</text><polyline fill="none" stroke="#000" points="1181.78 -684.5 1666.654 -684.5"/><text x="1189.78" y="-667.9" fill="#000" font-family="Times,serif" font-size="14" text-anchor="start">Private:</text><text x="1189.78" y="-651.1" fill="#000" font-family="Times,serif" font-size="14" text-anchor="start">_owner: address</text><polyline fill="none" stroke="#000" points="1181.78 -642.9 1666.654 -642.9"/><text x="1189.78" y="-626.3" fill="#000" font-family="Times,serif" font-size="14" text-anchor="start">Public:</text><text x="1189.78" y="-609.5" fill="#000" font-family="Times,serif" font-size="14" text-anchor="start">&lt;&lt;event&gt;&gt; OwnershipTransferred(previousOwner: address, newOwner: address)</text><text x="1189.78" y="-592.7" fill="#000" font-family="Times,serif" font-size="14" text-anchor="start">&lt;&lt;modifier&gt;&gt; onlyOwner()</text><text x="1189.78" y="-575.9" fill="#000" font-family="Times,serif" font-size="14" text-anchor="start">constructor()</text><text x="1189.78" y="-559.1" fill="#000" font-family="Times,serif" font-size="14" text-anchor="start">owner(): address</text><text x="1189.78" y="-542.3" fill="#000" font-family="Times,serif" font-size="14" text-anchor="start">renounceOwnership()</text><text x="1189.78" y="-525.5" fill="#000" font-family="Times,serif" font-size="14" text-anchor="start">transferOwnership(newOwner: address)</text></g><g id="edge5" class="edge"><title>5-&gt;0</title><path fill="none" stroke="#000" d="M1340.5216,-726.1006C1287.1409,-792.6868 1218.7906,-877.946 1168.471,-940.7139"/><polygon fill="none" stroke="#000" points="1160.035 -934.45 1149.463 -964.425 1176.42 -947.586 1160.035 -934.45"/></g><g id="node7" class="node"><title>6</title><polygon fill="#f2f2f2" stroke="#000" points="1232.706 -246.3 1232.706 -337.5 1615.728 -337.5 1615.728 -246.3 1232.706 -246.3"/><text x="1424.217" y="-320.9" fill="#000" font-family="Times,serif" font-size="14" text-anchor="middle">TokenRecover</text><polyline fill="none" stroke="#000" points="1232.706 -312.7 1615.728 -312.7"/><polyline fill="none" stroke="#000" points="1232.706 -287.9 1615.728 -287.9"/><text x="1240.706" y="-271.3" fill="#000" font-family="Times,serif" font-size="14" text-anchor="start">Public:</text><text x="1240.706" y="-254.5" fill="#000" font-family="Times,serif" font-size="14" text-anchor="start">recoverERC20(tokenAddress: address, tokenAmount: uint256)</text></g><g id="edge7" class="edge"><title>6-&gt;1</title><path fill="none" stroke="#000" stroke-dasharray="5 2" d="M1612.115,-337.5737C1641.6026,-348.3827 1665.5623,-360.6838 1675.2172,-374 1739.8384,-463.1273 1726.5301,-772.0011 1675.2172,-869.4 1669.9374,-879.4217 1663.7016,-888.9288 1656.7286,-897.9317"/><polygon fill="#000" stroke="#000" points="1653.998 -895.742 1650.417 -905.714 1659.434 -900.152 1653.998 -895.742"/></g><g id="edge6" class="edge"><title>6-&gt;5</title><path fill="none" stroke="#000" d="M1424.2172,-337.7573C1424.2172,-376.4636 1424.2172,-433.9068 1424.2172,-487.0193"/><polygon fill="none" stroke="#000" points="1413.717 -487.193 1424.217 -517.193 1434.717 -487.193 1413.717 -487.193"/></g><g id="node8" class="node"><title>7</title><polygon fill="#f2f2f2" stroke="#000" points="1222.98 -.5 1222.98 -209.3 1625.454 -209.3 1625.454 -.5 1222.98 -.5"/><text x="1424.217" y="-192.7" fill="#000" font-family="Times,serif" font-size="14" text-anchor="middle">ServiceReceiver</text><polyline fill="none" stroke="#000" points="1222.98 -184.5 1625.454 -184.5"/><text x="1230.98" y="-167.9" fill="#000" font-family="Times,serif" font-size="14" text-anchor="start">Private:</text><text x="1230.98" y="-151.1" fill="#000" font-family="Times,serif" font-size="14" text-anchor="start">_prices: mapping(bytes32=&gt;uint256)</text><polyline fill="none" stroke="#000" points="1222.98 -142.9 1625.454 -142.9"/><text x="1230.98" y="-126.3" fill="#000" font-family="Times,serif" font-size="14" text-anchor="start">Private:</text><text x="1230.98" y="-109.5" fill="#000" font-family="Times,serif" font-size="14" text-anchor="start">_toBytes32(serviceName: string): bytes32</text><text x="1230.98" y="-92.7" fill="#000" font-family="Times,serif" font-size="14" text-anchor="start">Public:</text><text x="1230.98" y="-75.9" fill="#000" font-family="Times,serif" font-size="14" text-anchor="start">&lt;&lt;payable&gt;&gt; pay(serviceName: string)</text><text x="1230.98" y="-59.1" fill="#000" font-family="Times,serif" font-size="14" text-anchor="start">&lt;&lt;event&gt;&gt; Created(serviceName: string, serviceAddress: address)</text><text x="1230.98" y="-42.3" fill="#000" font-family="Times,serif" font-size="14" text-anchor="start">getPrice(serviceName: string): uint256</text><text x="1230.98" y="-25.5" fill="#000" font-family="Times,serif" font-size="14" text-anchor="start">setPrice(serviceName: string, amount: uint256)</text><text x="1230.98" y="-8.7" fill="#000" font-family="Times,serif" font-size="14" text-anchor="start">withdraw(amount: uint256)</text></g><g id="edge8" class="edge"><title>7-&gt;6</title><path fill="none" stroke="#000" d="M1424.2172,-209.3347C1424.2172,-211.5492 1424.2172,-213.7553 1424.2172,-215.948"/><polygon fill="none" stroke="#000" points="1413.717 -216.147 1424.217 -246.147 1434.717 -216.147 1413.717 -216.147"/></g><g id="node9" class="node"><title>8</title><polygon fill="#f2f2f2" stroke="#000" points="394.177 -576.1 394.177 -667.3 710.257 -667.3 710.257 -576.1 394.177 -576.1"/><text x="552.217" y="-650.7" fill="#000" font-family="Times,serif" font-size="14" text-anchor="middle">ServicePayer</text><polyline fill="none" stroke="#000" points="394.177 -642.5 710.257 -642.5"/><polyline fill="none" stroke="#000" points="394.177 -617.7 710.257 -617.7"/><text x="402.177" y="-601.1" fill="#000" font-family="Times,serif" font-size="14" text-anchor="start">Public:</text><text x="402.177" y="-584.3" fill="#000" font-family="Times,serif" font-size="14" text-anchor="start">constructor(receiver: address, serviceName: string)</text></g><g id="node10" class="node"><title>9</title><polygon fill="#f2f2f2" stroke="#000" points="425.987 -246.3 425.987 -337.5 1036.447 -337.5 1036.447 -246.3 425.987 -246.3"/><text x="731.217" y="-320.9" fill="#000" font-family="Times,serif" font-size="14" text-anchor="middle">StandardERC20</text><polyline fill="none" stroke="#000" points="425.987 -312.7 1036.447 -312.7"/><polyline fill="none" stroke="#000" points="425.987 -287.9 1036.447 -287.9"/><text x="433.987" y="-271.3" fill="#000" font-family="Times,serif" font-size="14" text-anchor="start">Public:</text><text x="433.987" y="-254.5" fill="#000" font-family="Times,serif" font-size="14" text-anchor="start">constructor(name: string, symbol: string, decimals: uint8, initialBalance: uint256, feeReceiver: address)</text></g><g id="edge9" class="edge"><title>9-&gt;4</title><path fill="none" stroke="#000" d="M761.112,-337.7573C763.4959,-341.414 765.9887,-345.2379 768.5779,-349.2096"/><polygon fill="none" stroke="#000" points="759.784 -354.948 784.964 -374.345 777.376 -343.479 759.784 -354.948"/></g><g id="edge10" class="edge"><title>9-&gt;8</title><path fill="none" stroke="#000" d="M706.328,-337.7573C676.5798,-392.5671 626.4399,-484.9478 591.4579,-549.4007"/><polygon fill="none" stroke="#000" points="582.121 -544.592 577.039 -575.967 600.578 -554.609 582.121 -544.592"/></g></g></svg>